<svg width="22" height="22" viewBox="0 0 22 22" fill="none" xmlns="http://www.w3.org/2000/svg">
  <path d="M3 4H5.135C5.575 4 5.955 4.306 6.05 4.736L6.373 6.2H18.084C18.683 6.2 19.127 6.759 18.99 7.342L17.863 12.142C17.666 12.981 16.918 13.575 16.056 13.575H8.082C7.207 13.575 6.452 12.962 6.269 12.106L4.99 6.113L4.567 4.9H3C2.503 4.9 2.1 4.497 2.1 4C2.1 3.503 2.503 4 3 4Z" fill="#13233D"/>
  <path d="M8.25 18.7C9.16 18.7 9.9 17.96 9.9 17.05C9.9 16.14 9.16 15.4 8.25 15.4C7.34 15.4 6.6 16.14 6.6 17.05C6.6 17.96 7.34 18.7 8.25 18.7Z" fill="#13233D"/>
  <path d="M16.05 18.7C16.96 18.7 17.7 17.96 17.7 17.05C17.7 16.14 16.96 15.4 16.05 15.4C15.14 15.4 14.4 16.14 14.4 17.05C14.4 17.96 15.14 18.7 16.05 18.7Z" fill="#13233D"/>
</svg>
