<svg xmlns="http://www.w3.org/2000/svg" viewBox="0 0 32 32" aria-hidden="true">
  <circle cx="16" cy="16" r="16" fill="#7360F2"/>
  <path fill="#fff" d="M22.9 9.3c-1.9-1.7-5.7-2-6.9-2h-.1c-1.2 0-5 .3-6.9 2-1.4 1.3-1.9 3.2-2 5.6-.1 2.4.3 5.1 2.2 6.5.6.4 1.5.8 2.6 1l.6 2.1c.1.4.7.5 1 .2l2.1-2h.4c1.2 0 5-.3 6.9-2 1.5-1.3 2-3.2 2.1-5.7.1-2.5-.3-5.3-2-6.7Zm.1 5.6c-.1 2.1-.5 3.4-1.4 4.2-1.4 1.3-4.5 1.6-5.6 1.6h-.7c-.2 0-.4.1-.6.2l-1.2 1.2-.3-1.2c-.1-.3-.3-.5-.6-.5-1.1-.2-1.9-.5-2.3-.8-1.2-.9-1.5-2.9-1.4-4.7.1-2.1.5-3.4 1.4-4.2 1.4-1.3 4.5-1.6 5.6-1.6h.1c1.1 0 4.2.3 5.6 1.6 1 .9 1.4 2.2 1.4 4.2Zm-5.1-3.7c-.3 0-.5.2-.5.5s.2.5.5.5c1.3.1 2 .8 2.1 2.1 0 .3.2.5.5.5s.5-.2.5-.5c-.1-1.8-1.2-2.9-3.1-3.1Zm-3.9 2c.2-.2.2-.5 0-.7l-.7-.9c-.2-.3-.6-.3-.9-.1-.5.3-1 .8-1.1 1.4-.2 1.4.9 3.1 2.2 4.4 1.3 1.3 3 2.4 4.4 2.2.6-.1 1.1-.6 1.4-1.1.2-.3.2-.7-.1-.9l-.9-.7c-.2-.2-.5-.2-.7 0l-.5.5c-.1.1-.3.2-.5.1-.5-.2-1.1-.6-1.7-1.2-.6-.6-1-1.2-1.2-1.7-.1-.2 0-.4.1-.5l.2-.8Zm3.7-.2c-.3 0-.5.2-.5.5s.2.5.5.5c.5 0 .8.3.8.8 0 .3.2.5.5.5s.5-.2.5-.5c-.1-1-.8-1.7-1.8-1.8Z"/>
</svg>
