<svg xmlns="http://www.w3.org/2000/svg" viewBox="0 0 32 32" aria-hidden="true">
  <circle cx="16" cy="16" r="16" fill="#25D366"/>
  <path fill="#fff" d="M16.1 7.2a8.5 8.5 0 0 0-7.3 12.9l-1 3.7 3.8-1a8.5 8.5 0 1 0 4.5-15.6Zm0 15.4a6.9 6.9 0 0 1-3.5-1l-.3-.2-2.2.6.6-2.1-.2-.3a6.9 6.9 0 1 1 5.6 3Zm3.8-5.2c-.2-.1-1.3-.6-1.5-.7s-.4-.1-.6.1-.7.7-.8.9-.3.2-.5.1a5.7 5.7 0 0 1-1.7-1.1 6.2 6.2 0 0 1-1.2-1.5c-.1-.2 0-.4.1-.5l.4-.5c.1-.2.2-.3.3-.5a.5.5 0 0 0 0-.5c-.1-.1-.6-1.4-.8-1.9-.2-.5-.4-.4-.5-.4h-.5c-.2 0-.5.1-.7.3s-.9.9-.9 2.1 1 2.5 1.1 2.7a9.9 9.9 0 0 0 3.9 3.4c.5.2 1 .4 1.3.5.6.2 1.1.2 1.5.1.5-.1 1.3-.5 1.5-1.1.2-.5.2-1 .1-1.1 0-.2-.2-.3-.4-.4Z"/>
</svg>
