<svg width="20" height="22" viewBox="0 0 20 22" fill="none" xmlns="http://www.w3.org/2000/svg">
    <path d="M10.4254 16.8142H10.5254V16.7142V14.2142C10.5254 14.0711 10.64 13.957 10.7754 13.957H11.8254C11.9608 13.957 12.0754 14.0711 12.0754 14.2142V16.7142V16.8142H12.1754H13.606C13.8243 16.8142 13.9433 17.0887 13.7818 17.2536L11.4762 19.6062C11.3798 19.7046 11.221 19.7046 11.1246 19.6062L8.819 17.2536C8.65745 17.0887 8.77648 16.8142 8.99476 16.8142H10.4254ZM19.1004 18.1428C19.1004 16.7543 18.1602 15.5862 16.8915 15.2709C16.9617 15.0512 17.0004 14.8155 17.0004 14.5713C17.0004 13.335 16.0169 12.3285 14.8004 12.3285C14.3867 12.3285 13.998 12.4462 13.6679 12.6492C13.0336 11.5991 11.8984 10.8999 10.6004 10.8999C8.60952 10.8999 7.00039 12.5448 7.00039 14.5713C7.00039 14.609 7.00121 14.6465 7.00235 14.6835C5.77387 15.1567 4.90039 16.3676 4.90039 17.7856C4.90039 19.6135 6.3542 21.0999 8.15039 21.0999H16.2004C17.8041 21.0999 19.1004 19.7742 19.1004 18.1428Z" fill="#5B841B" stroke="white" stroke-width="0.2"/>
    <path fill-rule="evenodd" clip-rule="evenodd" d="M0 10L1.73768 6.30054H3.89394C4.13227 6.30054 4.12921 6.44229 4.01267 6.68972C3.89442 6.94089 3.69315 7.37259 3.5726 7.6275C3.51146 7.75713 3.40094 7.99303 3.76727 7.99303H6.65601C6.41577 8.5087 5.63649 10 4.23725 10H0ZM9.95146 7.99272L9.00922 10H6.52359C6.52359 10 7.46536 7.99302 7.46622 7.99302L9.95146 7.99272ZM13.5459 7.993L12.6032 9.99999H10.1184C10.1184 9.99999 11.0603 7.993 11.0612 7.993H13.5459ZM14.3542 7.993C14.3542 7.993 14.1728 8.38219 14.0845 8.56899C13.7723 9.23001 14.0482 9.99999 15.0669 9.99999H19.0574L20 7.993H14.3542Z" fill="#D40511"/>
    <path fill-rule="evenodd" clip-rule="evenodd" d="M1.21526 4L0.350098 5.84188H5.06506C5.3034 5.84188 5.30024 5.98363 5.1838 6.23091C5.06554 6.48179 4.86752 6.91857 4.74706 7.17349C4.68593 7.30266 4.57531 7.53872 4.94165 7.53872H6.8698C6.8698 7.53872 7.18054 6.87591 7.44103 6.32192C7.79552 5.56826 7.47179 4 6.20476 4H1.21526Z" fill="#D40511"/>
    <path fill-rule="evenodd" clip-rule="evenodd" d="M13.7592 7.53869H7.67969L9.34226 4.00006H11.827L10.8743 6.02902H11.9832L12.9368 4.00006H15.4213L13.7592 7.53869Z" fill="#D40511"/>
    <path fill-rule="evenodd" clip-rule="evenodd" d="M18.8626 4L17.2005 7.53872H14.5674C14.5674 7.53872 16.2301 4 16.2309 4H18.8626Z" fill="#D40511"/>
</svg>
