<svg width="20" height="22" viewBox="0 0 20 22" fill="none" xmlns="http://www.w3.org/2000/svg">
<path fill-rule="evenodd" clip-rule="evenodd" d="M17.1025 4.21191L17.4412 4.59291L17.6317 4.48708L17.1025 4.21191Z" fill="#DC0032"/>
<path fill-rule="evenodd" clip-rule="evenodd" d="M16.5947 3.93701L17.2509 4.69901L17.4837 4.57201L17.2297 4.27568L16.5947 3.93701Z" fill="#DC0032"/>
<path fill-rule="evenodd" clip-rule="evenodd" d="M16.0654 3.66162L17.0603 4.80462L17.2931 4.67762L16.7216 4.00029L16.0654 3.66162Z" fill="#DC0032"/>
<path fill-rule="evenodd" clip-rule="evenodd" d="M15.5576 3.38672L16.8699 4.91072L17.1028 4.78372L16.1926 3.72539L15.5576 3.38672ZM18.0764 6.07486L17.9283 6.15952L18.0764 6.32886V6.07486Z" fill="#DC0032"/>
<path fill-rule="evenodd" clip-rule="evenodd" d="M15.0498 3.11133L16.6796 5.01633L16.9125 4.88933L15.6848 3.44999L15.0498 3.11133ZM17.9919 6.11697L17.7591 6.26513L18.0766 6.64613V6.24397L17.9919 6.11697H17.9919Z" fill="#DC0032"/>
<path fill-rule="evenodd" clip-rule="evenodd" d="M14.5205 2.83643L16.489 5.12243L16.743 4.99543L15.1767 3.17509L14.5205 2.83643ZM17.8013 6.22306L17.5685 6.37123L18.0765 6.9639V6.56173L17.8013 6.22306Z" fill="#DC0032"/>
<path fill-rule="evenodd" clip-rule="evenodd" d="M14.0127 2.56104L16.3199 5.22803L16.5527 5.10103L14.6477 2.89969L14.0127 2.56104ZM17.611 6.34983L17.3782 6.47683L18.0767 7.30233V6.90017L17.611 6.34983Z" fill="#DC0032"/>
<path fill-rule="evenodd" clip-rule="evenodd" d="M13.5039 2.28613L16.1286 5.33412L16.3614 5.20712L14.1389 2.6248L13.5039 2.28613ZM17.4197 6.45593L17.1869 6.58293L18.0759 7.62009V7.21793L17.4197 6.45593Z" fill="#DC0032"/>
<path fill-rule="evenodd" clip-rule="evenodd" d="M12.9746 2.01074L15.9379 5.43973L16.1707 5.31273L13.6307 2.34941L12.9746 2.01074ZM17.2291 6.56153L16.9962 6.68853L18.0757 7.93737V7.5352L17.2291 6.56153Z" fill="#DC0032"/>
<path fill-rule="evenodd" clip-rule="evenodd" d="M12.4668 1.73584L15.7476 5.56699L15.9804 5.41883L13.1018 2.07451L12.4668 1.73584ZM17.0388 6.66763L16.8059 6.79463L18.0759 8.2763V7.87413L17.0388 6.66763Z" fill="#DC0032"/>
<path fill-rule="evenodd" clip-rule="evenodd" d="M11.9375 1.46045L15.557 5.6726L15.7898 5.52443L12.5937 1.79911L11.9375 1.46045ZM16.8693 6.77324L16.6153 6.90024L18.0758 8.59357V8.1914L16.8693 6.77324Z" fill="#DC0032"/>
<path fill-rule="evenodd" clip-rule="evenodd" d="M11.4297 1.18555L15.3667 5.77867L15.6207 5.63053L12.0859 1.52421L11.4297 1.18555ZM16.679 6.87933L16.4462 7.00633L18.076 8.9325V8.50917L16.679 6.87933Z" fill="#DC0032"/>
<path fill-rule="evenodd" clip-rule="evenodd" d="M10.9219 0.910156L15.1975 5.88427L15.4303 5.73611L11.5569 1.24882L10.9219 0.910156ZM16.4887 6.98494L16.2558 7.11194L18.0762 9.24977V8.84761L16.4887 6.98494Z" fill="#DC0032"/>
<path fill-rule="evenodd" clip-rule="evenodd" d="M10.3926 0.61377L15.0069 5.99005L15.2397 5.84189L11.0487 0.9736L10.3926 0.61377ZM16.2981 7.09072L16.0652 7.21772L18.076 9.56719V9.16505L16.2981 7.09072Z" fill="#DC0032"/>
<path fill-rule="evenodd" clip-rule="evenodd" d="M9.88477 0.338867L14.8166 6.09615L15.0494 5.96915L10.5409 0.698698L9.88477 0.338867ZM16.1077 7.19681L15.8749 7.32381L18.0762 9.90612V9.48281L16.1077 7.19681Z" fill="#DC0032"/>
<path fill-rule="evenodd" clip-rule="evenodd" d="M9.37695 0.0844727L14.6262 6.20158L14.8591 6.07458L10.0119 0.423137L9.37695 0.0844727ZM15.9174 7.30225L15.6846 7.42925L18.0764 10.2232V9.82106L15.9174 7.30225Z" fill="#DC0032"/>
<path fill-rule="evenodd" clip-rule="evenodd" d="M9.03809 0L14.4355 6.30761L14.6684 6.18061L9.50375 0.148166L9.37675 0.0846661C9.27092 0.0211665 9.16509 0 9.03809 0ZM15.7267 7.40828L15.4939 7.53528L18.0762 10.5409V10.1387L15.7267 7.40828Z" fill="#DC0032"/>
<path fill-rule="evenodd" clip-rule="evenodd" d="M9.03818 0C8.95351 0 8.86885 0.0211665 8.78418 0.0423331L14.2451 6.41344L14.4991 6.28644L9.10168 0C9.08051 0 9.05935 0 9.03818 0ZM15.5575 7.51411L15.3246 7.64111L18.0763 10.8796V10.4562L15.5575 7.51411Z" fill="#DC0032"/>
<path fill-rule="evenodd" clip-rule="evenodd" d="M8.84775 0.0209961C8.80542 0.0421626 8.74192 0.063329 8.72075 0.0844957L8.59375 0.147995L14.0759 6.51911L14.3087 6.39211L8.84775 0.0209961ZM15.367 7.61977L15.1342 7.76794L18.0763 11.1969V10.7947L15.367 7.61977Z" fill="#DC0032"/>
<path fill-rule="evenodd" clip-rule="evenodd" d="M8.63615 0.105957L8.40332 0.232956L13.8854 6.62523L14.1183 6.49823L8.63615 0.105957ZM15.1766 7.7259L14.9438 7.87407L18.0764 11.5147V11.1125L15.1766 7.7259Z" fill="#DC0032"/>
<path fill-rule="evenodd" clip-rule="evenodd" d="M8.44572 0.211426L8.21289 0.338425L13.695 6.7307L13.9278 6.6037L8.44572 0.211426ZM14.9862 7.83137L14.7533 7.97954L18.0765 11.853V11.4508L14.9862 7.83137Z" fill="#DC0032"/>
<path fill-rule="evenodd" clip-rule="evenodd" d="M8.25529 0.317383L8.02246 0.444383L13.5046 6.83666L13.7374 6.70966L8.25529 0.317383ZM14.7957 7.93733L14.5629 8.0855L18.0765 12.1706V11.7685L14.7957 7.93733Z" fill="#DC0032"/>
<path fill-rule="evenodd" clip-rule="evenodd" d="M8.06486 0.42334L7.83203 0.55034L13.3142 6.94262L13.547 6.81562L8.06486 0.42334ZM14.6053 8.04329L14.3725 8.19145L18.0766 12.4883V12.0861L14.6053 8.04329Z" fill="#DC0032"/>
<path fill-rule="evenodd" clip-rule="evenodd" d="M7.87346 0.529297L7.64062 0.656294L13.1228 7.04858L13.3556 6.92158L7.87346 0.529297ZM14.4351 8.14924L14.2022 8.29741L18.0757 12.827V12.4249L14.4351 8.14924Z" fill="#DC0032"/>
<path fill-rule="evenodd" clip-rule="evenodd" d="M7.68303 0.61377L7.4502 0.761936L12.9535 7.15422L13.1863 7.02722L7.68303 0.61377ZM14.2446 8.27605L14.0118 8.40305L18.0758 13.1444V12.7422L14.2446 8.27605Z" fill="#DC0032"/>
<path fill-rule="evenodd" clip-rule="evenodd" d="M7.4926 0.719727L7.25977 0.846727L12.7631 7.26018L12.9959 7.13318L7.4926 0.719727ZM14.0542 8.38201L13.8214 8.50901L18.0758 13.4831V13.0598L14.0542 8.38201Z" fill="#DC0032"/>
<path fill-rule="evenodd" clip-rule="evenodd" d="M7.30217 0.825684L7.06934 0.952684L12.5726 7.3873L12.8055 7.23913L7.30217 0.825684ZM13.8638 8.48797L13.6309 8.61497L18.0759 13.8007V13.3986L13.8638 8.48797Z" fill="#DC0032"/>
<path fill-rule="evenodd" clip-rule="evenodd" d="M7.11174 0.931152L6.87891 1.05815L12.3822 7.49277L12.615 7.3446L7.11174 0.931152ZM13.6733 8.59343L13.4405 8.72044L18.076 14.1179V13.7157L13.6733 8.59343Z" fill="#DC0032"/>
<path fill-rule="evenodd" clip-rule="evenodd" d="M6.92131 1.03711L6.68848 1.16411L12.1918 7.59873L12.4246 7.45056L6.92131 1.03711ZM13.4829 8.6994L13.2501 8.8264L18.0761 14.4567V14.0333L13.4829 8.6994Z" fill="#DC0032"/>
<path fill-rule="evenodd" clip-rule="evenodd" d="M6.73088 1.14307L6.49805 1.27007L12.0014 7.70469L12.2342 7.55652L6.73088 1.14307ZM13.3137 8.80535L13.0809 8.93235L18.0761 14.7743V14.3721L13.3137 8.80535Z" fill="#DC0032"/>
<path fill-rule="evenodd" clip-rule="evenodd" d="M6.54013 1.22754L6.28613 1.35454L11.8318 7.81032L12.0646 7.66216L6.54013 1.22754ZM13.1229 8.91099L12.8901 9.03799L18.0759 15.0916V14.6894L13.1229 8.91099Z" fill="#DC0032"/>
<path fill-rule="evenodd" clip-rule="evenodd" d="M6.3497 1.3335L6.0957 1.46049L11.6625 7.93745C11.6837 7.89512 11.7048 7.87395 11.7472 7.85278L11.8742 7.76812L6.34971 1.3335L6.3497 1.3335ZM12.9325 9.01695L12.6997 9.14395L18.0336 15.3669C18.0548 15.3034 18.0759 15.2399 18.0759 15.1764V15.0071L12.9325 9.01695H12.9325Z" fill="#DC0032"/>
<path fill-rule="evenodd" clip-rule="evenodd" d="M6.15927 1.43945L5.90527 1.56645L11.5991 8.19157V8.10691C11.5991 8.04341 11.6414 7.95874 11.6837 7.89524L6.15927 1.43945ZM12.7421 9.12291L12.5727 9.22874C12.5516 9.22874 12.5304 9.24991 12.5092 9.24991L17.9279 15.5787C17.9914 15.494 18.0337 15.4094 18.0549 15.3247L12.7421 9.12291Z" fill="#DC0032"/>
<path fill-rule="evenodd" clip-rule="evenodd" d="M5.96882 1.54492L5.71484 1.67192L11.5991 8.52988V8.10654L5.96882 1.54492ZM12.1495 9.14371L17.7797 15.7265C17.8432 15.6842 17.9067 15.5995 17.9702 15.536L12.5516 9.22838C12.467 9.27071 12.34 9.27071 12.2553 9.22838L12.1495 9.14371Z" fill="#DC0032"/>
<path fill-rule="evenodd" clip-rule="evenodd" d="M5.77839 1.65088L5.52441 1.77788L17.5893 15.8324L17.7586 15.7478C17.7798 15.7266 17.801 15.7054 17.8221 15.6843L12.2765 9.2285H12.2554L11.7685 8.93217C11.7262 8.911 11.705 8.86867 11.6627 8.82633C11.6204 8.76283 11.6204 8.7205 11.5992 8.67817V8.44533L5.77839 1.65088Z" fill="#DC0032"/>
<path fill-rule="evenodd" clip-rule="evenodd" d="M5.58798 1.75684L5.33398 1.88384L17.3989 15.9384L17.6317 15.8114L5.58798 1.75684Z" fill="#DC0032"/>
<path fill-rule="evenodd" clip-rule="evenodd" d="M5.39755 1.84131L5.14355 1.96831L17.2296 16.044L17.4624 15.917L5.39755 1.84131Z" fill="#DC0032"/>
<path fill-rule="evenodd" clip-rule="evenodd" d="M5.20713 1.94727L4.95312 2.07427L17.0392 16.15L17.272 16.023L5.20713 1.94727Z" fill="#DC0032"/>
<path fill-rule="evenodd" clip-rule="evenodd" d="M5.0167 2.05322L4.7627 2.18022L16.8488 16.256L17.0816 16.129L5.0167 2.05322Z" fill="#DC0032"/>
<path fill-rule="evenodd" clip-rule="evenodd" d="M4.8051 2.15918L4.57227 2.28618L16.6583 16.3831L16.8912 16.2349L4.8051 2.15918Z" fill="#DC0032"/>
<path fill-rule="evenodd" clip-rule="evenodd" d="M4.61467 2.26465L4.38184 2.39165L16.4679 16.4886L16.7008 16.3404L4.61467 2.26465Z" fill="#DC0032"/>
<path fill-rule="evenodd" clip-rule="evenodd" d="M4.42424 2.37061L4.19141 2.4976L16.2987 16.5945L16.5315 16.4463L4.42424 2.37061Z" fill="#DC0032"/>
<path fill-rule="evenodd" clip-rule="evenodd" d="M4.23283 2.45508L4 2.58208L16.1072 16.7001L16.3401 16.552L4.23283 2.45508Z" fill="#DC0032"/>
<path fill-rule="evenodd" clip-rule="evenodd" d="M4.0424 2.56104L3.80957 2.68804L15.9168 16.8061L16.1497 16.6791L4.0424 2.56104Z" fill="#DC0032"/>
<path fill-rule="evenodd" clip-rule="evenodd" d="M3.85197 2.66699L3.61914 2.79399L9.50345 9.65193L9.69392 9.77893C9.77858 9.82126 9.86325 9.92709 9.86325 10.0329V10.0541L15.7264 16.9121L15.9592 16.7851L3.85197 2.66699Z" fill="#DC0032"/>
<path fill-rule="evenodd" clip-rule="evenodd" d="M3.66154 2.77295L3.42871 2.89994L8.95318 9.35575L9.65165 9.73672L3.66154 2.77295ZM9.84215 9.96955C9.84215 9.99072 9.86332 10.0119 9.86332 10.0331V10.3929L15.536 17.018L15.7688 16.891L9.84215 9.96955Z" fill="#DC0032"/>
<path fill-rule="evenodd" clip-rule="evenodd" d="M3.47111 2.87842L3.23828 3.00542L8.40292 9.03789L9.10142 9.41889L3.47111 2.87842ZM9.86339 10.3079V10.71L15.3667 17.1235L15.5995 16.9965L9.86339 10.3079Z" fill="#DC0032"/>
<path fill-rule="evenodd" clip-rule="evenodd" d="M3.28068 2.98438L3.04785 3.11138L7.87382 8.72051L8.55116 9.10151L3.28068 2.98438ZM9.86346 10.6255V11.0488L15.1763 17.2294L15.4091 17.1025L9.86346 10.6255Z" fill="#DC0032"/>
<path fill-rule="evenodd" clip-rule="evenodd" d="M3.09026 3.06934L2.85742 3.19634L7.32356 8.40331L8.00089 8.80547L3.09026 3.06934ZM9.86353 10.9644V11.3666L14.9858 17.3356L15.2187 17.2086L9.86353 10.9644Z" fill="#DC0032"/>
<path fill-rule="evenodd" clip-rule="evenodd" d="M2.89982 3.1748L2.66699 3.3018L6.77329 8.08544L7.45062 8.48761L2.89982 3.1748ZM9.86359 11.2816V11.6837L14.7954 17.441L15.0282 17.314L9.86359 11.2816Z" fill="#DC0032"/>
<path fill-rule="evenodd" clip-rule="evenodd" d="M2.70939 3.28076L2.47656 3.40776L6.22302 7.78923L6.90036 8.17023L2.70939 3.28076ZM9.86366 11.5992V12.0225L14.605 17.5681L14.8378 17.42L9.86366 11.5992Z" fill="#DC0032"/>
<path fill-rule="evenodd" clip-rule="evenodd" d="M2.51896 3.38672L2.28613 3.51372L5.67279 7.47186L6.35009 7.85286L2.51896 3.38672ZM9.86373 11.938V12.3402L14.4357 17.6741L14.6685 17.5259L9.86373 11.938Z" fill="#DC0032"/>
<path fill-rule="evenodd" clip-rule="evenodd" d="M2.32853 3.49268L2.0957 3.61968L5.12252 7.15448L5.82099 7.53548L2.32853 3.49268ZM9.8638 12.2556V12.6578L14.2453 17.7801L14.4781 17.6319L9.8638 12.2556Z" fill="#DC0032"/>
<path fill-rule="evenodd" clip-rule="evenodd" d="M2.1381 3.59814L1.90527 3.72514L4.57226 6.83662L5.27076 7.23878L2.1381 3.59814ZM7.68373 10.4561L8.23406 11.0911V10.8583C8.23406 10.8159 8.19173 10.7524 8.1494 10.7313L7.68373 10.4561ZM9.86387 12.5728V12.9961L14.0548 17.8855L14.2877 17.7374L9.86387 12.5728Z" fill="#DB0032"/>
<path fill-rule="evenodd" clip-rule="evenodd" d="M1.94767 3.68311L1.71484 3.81011L4.02199 6.51941L4.72049 6.92158L1.94767 3.68311ZM7.13347 10.1389L8.23413 11.4089V11.0067L7.83197 10.541L7.13347 10.1389ZM9.86394 12.9117V13.3139L13.8644 17.9917L14.0972 17.8647L9.86394 12.9117Z" fill="#DC0032"/>
<path fill-rule="evenodd" clip-rule="evenodd" d="M1.75724 3.78857L1.52441 3.91557L3.4929 6.22271L4.17023 6.60371L1.75724 3.78857ZM6.5832 9.84218L8.2342 11.7472V11.345L7.2817 10.2232L6.5832 9.84218ZM9.86401 13.2289V13.631L13.674 18.0971L13.9068 17.9701L9.86401 13.2289Z" fill="#DC0032"/>
<path fill-rule="evenodd" clip-rule="evenodd" d="M1.56584 3.89453L1.33301 4.02153L2.94165 5.90534L3.61899 6.28634L1.56584 3.89453ZM6.05313 9.52484L8.23329 12.0648V11.6626L6.73046 9.90581L6.05313 9.52484ZM9.8631 13.5676V13.9698L13.5037 18.2031L13.7366 18.0761L9.8631 13.5676Z" fill="#DC0032"/>
<path fill-rule="evenodd" clip-rule="evenodd" d="M1.37541 4.00049L1.14258 4.12749L2.3914 5.58799L3.06872 5.96896L1.37541 4.00049ZM5.50289 9.20746L8.23336 12.3824V11.9803L6.1802 9.6096L5.50289 9.20746ZM9.86317 13.8852V14.2874L13.3133 18.309L13.5461 18.182L9.86317 13.8852Z" fill="#DC0032"/>
<path fill-rule="evenodd" clip-rule="evenodd" d="M1.18498 4.10645L0.952148 4.23345L1.84114 5.27061L2.51847 5.67278L1.18498 4.10645ZM4.95263 8.89008L8.23343 12.7212V12.3191L5.62996 9.29225L4.95263 8.89008ZM9.86324 14.2029V14.605L13.1229 18.415L13.3557 18.288L9.86324 14.2029Z" fill="#DC0032"/>
<path fill-rule="evenodd" clip-rule="evenodd" d="M0.994549 4.21191L0.761719 4.33891L1.29088 4.95275L1.98938 5.35491L0.994549 4.21191ZM4.40236 8.59339L8.2335 13.0384V12.6362L5.0797 8.97439L4.40236 8.59339ZM9.86331 14.5412V14.9433L12.9325 18.5205L13.1653 18.3935L9.86331 14.5412Z" fill="#DC0032"/>
<path fill-rule="evenodd" clip-rule="evenodd" d="M0.804778 4.29688L0.550781 4.42388L0.741278 4.65671L1.43977 5.03771L0.804778 4.29688ZM3.85276 8.27618L8.23423 13.3773V12.954L4.55126 8.65718L3.85276 8.27618ZM9.86403 14.859V15.2611L12.7427 18.6478L12.9755 18.4996L9.86403 14.859Z" fill="#DC0032"/>
<path fill-rule="evenodd" clip-rule="evenodd" d="M0.613984 4.40283L0.46582 4.4875L0.889151 4.72033L0.613984 4.40283V4.40283ZM3.30213 7.9588L8.23393 13.6949V13.2928L4.00063 8.36097L3.30213 7.9588ZM9.86374 15.1766V15.5999L12.5731 18.7537L12.8059 18.6056L9.86374 15.1766Z" fill="#DC0032"/>
<path fill-rule="evenodd" clip-rule="evenodd" d="M2.77246 7.64111L8.23342 14.0122V13.6101L3.44979 8.04328L2.77246 7.64111ZM9.86323 15.5151V15.9172L12.3821 18.8594L12.6149 18.7112L9.86323 15.5151Z" fill="#DC0032"/>
<path fill-rule="evenodd" clip-rule="evenodd" d="M2.22266 7.34473L8.23395 14.3508V13.9275L2.89998 7.72573L2.22266 7.34473ZM9.86376 15.8325V16.2347L12.1921 18.9651L12.4249 18.817L9.86376 15.8325Z" fill="#DC0032"/>
<path fill-rule="evenodd" clip-rule="evenodd" d="M1.67188 7.02734L8.2335 14.6685V14.2663L2.3492 7.40834L1.67188 7.02734ZM9.8633 16.1501V16.5735L12.0011 19.0711L12.234 18.9441L9.8633 16.1501Z" fill="#DC0032"/>
<path fill-rule="evenodd" clip-rule="evenodd" d="M1.12207 6.70996L8.23402 14.9861V14.5839L1.7994 7.11213L1.12207 6.70996ZM9.86383 16.4889V16.8911L11.8112 19.177L12.044 19.05L9.86383 16.4889Z" fill="#DB0032"/>
<path fill-rule="evenodd" clip-rule="evenodd" d="M0.571289 6.39209L8.23357 15.3244V14.9222L1.24862 6.79426L0.571289 6.39209ZM9.86337 16.806V17.2082L11.6414 19.2825L11.8742 19.1555L9.86337 16.806Z" fill="#DA0032"/>
<path fill-rule="evenodd" clip-rule="evenodd" d="M0.0214844 6.0957L8.23409 15.6418V15.2396L0.719979 6.4767L0.0214844 6.0957ZM9.8639 17.1235V17.5468L11.4514 19.3883L11.6842 19.2613L9.8639 17.1235Z" fill="#D90032"/>
<path fill-rule="evenodd" clip-rule="evenodd" d="M0 6.07471V6.37104L8.23378 15.9595V15.5573L0.169332 6.15937L0 6.07471ZM9.86358 17.4623V17.7163C9.86358 17.7586 9.84241 17.801 9.82125 17.8221L11.2606 19.4943L11.4934 19.3673L9.86358 17.4623Z" fill="#D80032"/>
<path fill-rule="evenodd" clip-rule="evenodd" d="M0 6.28662V6.70995L8.23378 16.2984V15.8962L0 6.28662ZM9.84242 17.78C9.82125 17.8647 9.75775 17.9494 9.69425 17.9705L9.67308 17.9917L11.0701 19.6004L11.3029 19.4734L9.84241 17.78L9.84242 17.78Z" fill="#D70032"/>
<path fill-rule="evenodd" clip-rule="evenodd" d="M0 6.625V7.02717L8.23378 16.6156V16.2134L0 6.625ZM9.71542 17.9491C9.71542 17.9703 9.71542 17.9703 9.69425 17.9703L9.48261 18.0973L10.8796 19.7059L11.1124 19.5789L9.71542 17.9491L9.71542 17.9491Z" fill="#D60032"/>
<path fill-rule="evenodd" clip-rule="evenodd" d="M0 6.94238V7.34455L8.23378 16.933V16.5308L0 6.94238ZM9.54608 18.0548L9.29211 18.203L10.7102 19.8328L10.9431 19.6846L9.54608 18.0548Z" fill="#D50032"/>
<path fill-rule="evenodd" clip-rule="evenodd" d="M0 7.28125V7.68342L8.23378 17.2718V16.8697L0 7.28125ZM9.35561 18.1608L9.20744 18.2455C9.16511 18.2667 9.12278 18.2667 9.08044 18.2667L10.5197 19.9388L10.7526 19.7907L9.35561 18.1608V18.1608Z" fill="#D40032"/>
<path fill-rule="evenodd" clip-rule="evenodd" d="M0 7.59863V8.0008L8.23378 17.5892V17.187L0 7.59863ZM8.69944 18.1607L10.3292 20.0445L10.5621 19.8964L9.14394 18.2665C9.12278 18.2665 9.08044 18.2877 9.05928 18.2877H9.03811C8.97461 18.2877 8.93228 18.2665 8.88994 18.2454L8.69944 18.1607L8.69944 18.1607Z" fill="#D30032"/>
<path fill-rule="evenodd" clip-rule="evenodd" d="M0 7.9165V8.33984L10.1387 20.1508L10.3716 20.0026L8.84761 18.2246L8.38194 17.9706C8.29728 17.9283 8.23378 17.8224 8.23378 17.7166V17.5049L0 7.9165Z" fill="#D20032"/>
<path fill-rule="evenodd" clip-rule="evenodd" d="M0 8.25488V8.65705L9.94825 20.2563L10.1811 20.1293L0 8.25488Z" fill="#D10032"/>
<path fill-rule="evenodd" clip-rule="evenodd" d="M0 8.57227V8.97443L9.75775 20.362L9.99058 20.235L0 8.57227Z" fill="#D00032"/>
<path fill-rule="evenodd" clip-rule="evenodd" d="M0 8.89014V9.31347L9.58842 20.4682L9.82125 20.3412L0 8.89014Z" fill="#CF0032"/>
<path fill-rule="evenodd" clip-rule="evenodd" d="M0 9.22852V9.63065L9.39794 20.5738L9.63075 20.4468L0 9.22852Z" fill="#CE0032"/>
<path fill-rule="evenodd" clip-rule="evenodd" d="M0 9.5459V9.94807L9.18628 20.6583C9.24978 20.6372 9.31328 20.616 9.37678 20.5948L9.44028 20.5525L0 9.5459Z" fill="#CD0032"/>
<path fill-rule="evenodd" clip-rule="evenodd" d="M0 9.86377V10.2871L8.91111 20.6587C8.95344 20.6587 8.99578 20.6587 9.03811 20.6587C9.10161 20.6587 9.16511 20.6587 9.22861 20.6375L0 9.86377Z" fill="#CC0032"/>
<path fill-rule="evenodd" clip-rule="evenodd" d="M0 10.2021V10.6043L8.42428 20.4256L8.72061 20.5949C8.78411 20.6373 8.88994 20.6584 8.97461 20.6584L0 10.2021Z" fill="#CB0032"/>
<path fill-rule="evenodd" clip-rule="evenodd" d="M0 10.5195V10.9217L7.87394 20.108L8.57244 20.5101L0 10.5195Z" fill="#CA0032"/>
<path fill-rule="evenodd" clip-rule="evenodd" d="M0 10.8584V11.2606L7.32361 19.7907L8.02211 20.1928L0 10.8584Z" fill="#C90032"/>
<path fill-rule="evenodd" clip-rule="evenodd" d="M0 11.1758V11.5779L6.77328 19.4731L7.45061 19.8752L0 11.1758Z" fill="#C80033"/>
<path fill-rule="evenodd" clip-rule="evenodd" d="M0 11.4937V11.8958L6.22294 19.1559L6.90028 19.5581L0 11.4937Z" fill="#C70033"/>
<path fill-rule="evenodd" clip-rule="evenodd" d="M0 11.832V12.2342L5.65147 18.817L6.34994 19.2191L0 11.832Z" fill="#C60033"/>
<path fill-rule="evenodd" clip-rule="evenodd" d="M0 12.1494V12.5516L5.10114 18.4994L5.79961 18.9015L0 12.1494Z" fill="#C50033"/>
<path fill-rule="evenodd" clip-rule="evenodd" d="M0 12.4673V12.8695L4.55081 18.1822L5.24931 18.5844L0 12.4673Z" fill="#C40033"/>
<path fill-rule="evenodd" clip-rule="evenodd" d="M0 12.8057V13.2078L4.00047 17.8644L4.69897 18.2666L0 12.8057Z" fill="#C30033"/>
<path fill-rule="evenodd" clip-rule="evenodd" d="M0 13.123V13.5252L3.45014 17.5468L4.14864 17.949L0 13.123Z" fill="#C20033"/>
<path fill-rule="evenodd" clip-rule="evenodd" d="M0 13.4409V13.8643L2.89981 17.2297L3.57714 17.6319L0 13.4409Z" fill="#C10033"/>
<path fill-rule="evenodd" clip-rule="evenodd" d="M0 13.7793V14.1815L2.32832 16.912L3.0268 17.3141L0 13.7793Z" fill="#C00033"/>
<path fill-rule="evenodd" clip-rule="evenodd" d="M0 14.0967V14.4988L1.77799 16.5943L2.47648 16.9753L0 14.0967Z" fill="#BF0033"/>
<path fill-rule="evenodd" clip-rule="evenodd" d="M0 14.4146V14.8379L1.22766 16.2561L1.92615 16.6582L0 14.4146Z" fill="#BE0033"/>
<path fill-rule="evenodd" clip-rule="evenodd" d="M0 14.7529V15.1551L0.677328 15.9383L1.37582 16.3404L0 14.7529Z" fill="#BD0033"/>
<path fill-rule="evenodd" clip-rule="evenodd" d="M0 15.0703V15.1761C0 15.3878 0.148166 15.6418 0.317497 15.7476L0.825494 16.0228L0 15.0703Z" fill="#BC0033"/>
<path fill-rule="evenodd" clip-rule="evenodd" d="M0.126953 15.5576C0.169286 15.5999 0.190453 15.6423 0.232786 15.6635L0.126953 15.5576Z" fill="#BB0033"/>
<path d="M10.425 16.8143H10.525V16.7143V14.2143C10.525 14.0712 10.6396 13.9571 10.775 13.9571H11.825C11.9604 13.9571 12.075 14.0712 12.075 14.2143V16.7143V16.8143H12.175H13.6056C13.8239 16.8143 13.9429 17.0888 13.7814 17.2537L11.4758 19.6063C11.3794 19.7047 11.2206 19.7047 11.1242 19.6063L8.81861 17.2537C8.65706 17.0888 8.77609 16.8143 8.99437 16.8143H10.425ZM19.1 18.1429C19.1 16.7544 18.1598 15.5863 16.8911 15.271C16.9613 15.0513 17 14.8156 17 14.5714C17 13.3351 16.0165 12.3286 14.8 12.3286C14.3863 12.3286 13.9976 12.4463 13.6675 12.6493C13.0332 11.5992 11.898 10.9 10.6 10.9C8.60913 10.9 7 12.5449 7 14.5714C7 14.6091 7.00082 14.6466 7.00196 14.6836C5.77348 15.1568 4.9 16.3677 4.9 17.7857C4.9 19.6136 6.35381 21.1 8.15 21.1H16.2C17.8037 21.1 19.1 19.7743 19.1 18.1429Z" fill="#5B841B" stroke="white" stroke-width="0.2"/>
</svg>
