<svg width="20" height="22" viewBox="0 0 20 22" fill="none" xmlns="http://www.w3.org/2000/svg">
<g clip-path="url(#clip0_501_2)">
<path fill-rule="evenodd" clip-rule="evenodd" d="M16.6489 6.15674L17.4772 7.07092L18.2758 6.15674H19.9735L18.3131 8.02614L19.9959 9.91047H18.2272L17.4101 8.99256L16.5967 9.91047H14.8877L16.5593 8.0336L14.8877 6.15674H16.6489Z" fill="#EA5506"/>
<path fill-rule="evenodd" clip-rule="evenodd" d="M14.8882 6.15672V7.42537H12.9965V8.58955H14.8882V9.91045H11.6084V4H14.8882V5.31716H12.9965V6.15672H14.8882Z" fill="#EA5506"/>
<path fill-rule="evenodd" clip-rule="evenodd" d="M10.2239 4V6.41791H10.209C9.90299 6.06716 9.51866 5.94403 9.07463 5.94403C8.16418 5.94403 7.47761 6.56343 7.23881 7.3806C6.96269 6.48134 6.25746 5.92537 5.20522 5.92537C4.35448 5.92537 3.6791 6.30597 3.32836 6.93284V6.15672H1.5709V5.31716H3.49254V4H0V9.91045H1.5709V7.42537H3.13433C3.08582 7.60821 3.06343 7.80224 3.06343 8.01119C3.06343 9.24254 4.00373 10.1082 5.20896 10.1082C6.22015 10.1082 6.88806 9.63433 7.23881 8.76866H5.89179C5.70896 9.02985 5.5709 9.10448 5.20896 9.10448C4.78731 9.10448 4.42164 8.73507 4.42164 8.29851H7.16045C7.27985 9.27612 8.04105 10.1231 9.08955 10.1231C9.54105 10.1231 9.95522 9.89925 10.209 9.52612H10.2239V9.91045H11.6082V4H10.2239ZM4.46642 7.44403C4.55224 7.06716 4.84328 6.82463 5.20896 6.82463C5.60821 6.82463 5.88433 7.06343 5.95896 7.44403C5.98881 7.44403 4.46642 7.44403 4.46642 7.44403ZM9.38433 9.01119C8.87313 9.01119 8.55597 8.53731 8.55597 8.04104C8.55597 7.51119 8.83209 7 9.38433 7C9.95522 7 10.1828 7.51119 10.1828 8.04104C10.1828 8.54104 9.94403 9.01119 9.38433 9.01119Z" fill="#43278B"/>
</g>
<path d="M10.4254 16.8142H10.5254V16.7142V14.2142C10.5254 14.0711 10.64 13.957 10.7754 13.957H11.8254C11.9608 13.957 12.0754 14.0711 12.0754 14.2142V16.7142V16.8142H12.1754H13.606C13.8243 16.8142 13.9433 17.0887 13.7818 17.2536L11.4762 19.6062C11.3798 19.7046 11.221 19.7046 11.1246 19.6062L8.819 17.2536C8.65745 17.0887 8.77648 16.8142 8.99476 16.8142H10.4254ZM19.1004 18.1428C19.1004 16.7543 18.1602 15.5862 16.8915 15.2709C16.9617 15.0512 17.0004 14.8155 17.0004 14.5713C17.0004 13.335 16.0169 12.3285 14.8004 12.3285C14.3867 12.3285 13.998 12.4462 13.6679 12.6492C13.0336 11.5991 11.8984 10.8999 10.6004 10.8999C8.60952 10.8999 7.00039 12.5448 7.00039 14.5713C7.00039 14.609 7.00121 14.6465 7.00235 14.6835C5.77387 15.1567 4.90039 16.3676 4.90039 17.7856C4.90039 19.6135 6.3542 21.0999 8.15039 21.0999H16.2004C17.8041 21.0999 19.1004 19.7742 19.1004 18.1428Z" fill="#5B841B" stroke="white" stroke-width="0.2"/>
<defs>
<clipPath id="clip0_501_2">
<rect width="20" height="6.1194" fill="white" transform="translate(0 4)"/>
</clipPath>
</defs>
</svg>
