<svg width="20" height="22" viewBox="0 0 20 22" fill="none" xmlns="http://www.w3.org/2000/svg">
<g clip-path="url(#clip0)">
<path d="M7.525 17.9143H7.625V17.8143V15.3143C7.625 15.1712 7.7396 15.0571 7.875 15.0571H8.925C9.0604 15.0571 9.175 15.1712 9.175 15.3143V17.8143V17.9143H9.275H10.7056C10.9239 17.9143 11.0429 18.1888 10.8814 18.3537L8.5758 20.7063C8.4794 20.8047 8.3206 20.8047 8.2242 20.7063L5.91861 18.3537C5.75706 18.1888 5.87609 17.9143 6.09437 17.9143H7.525ZM16.2 19.2429C16.2 17.8544 15.2598 16.6863 13.9911 16.371C14.0613 16.1513 14.1 15.9156 14.1 15.6714C14.1 14.4351 13.1165 13.4286 11.9 13.4286C11.4863 13.4286 11.0976 13.5463 10.7675 13.7493C10.1332 12.6992 8.998 12 7.7 12C5.70913 12 4.1 13.6449 4.1 15.6714C4.1 15.7091 4.10082 15.7466 4.10196 15.7836C2.87348 16.2568 2 17.4677 2 18.8857C2 20.7136 3.45381 22.2 5.25 22.2H13.3C14.9037 22.2 16.2 20.8743 16.2 19.2429Z" fill="#001652" stroke="#001652" stroke-width="0.2"/>
<path fill-rule="evenodd" clip-rule="evenodd" d="M16.1718 2.01206C14.8058 2.01206 13.6193 2.77759 13.0197 3.9018C12.42 2.77759 11.2334 2.01206 9.86737 2.01206C8.50588 2.01206 7.32249 2.77269 6.72095 3.89111C6.12157 2.76609 4.93454 2 3.56804 2C1.59751 2 0 3.59318 0 5.55848C0 7.52379 1.59751 9.11708 3.56804 9.11708C4.92964 9.11708 6.11304 8.35645 6.71458 7.23804C7.31395 8.36294 8.50099 9.12903 9.86737 9.12903C11.2334 9.12903 12.4201 8.36351 13.0197 7.23918C13.6194 8.36362 14.8058 9.12903 16.1718 9.12903C18.1424 9.12903 19.74 7.53585 19.74 5.57043C19.7401 3.60524 18.1425 2.01206 16.1718 2.01206ZM3.56804 8.2851C2.05805 8.2851 0.834031 7.06438 0.834031 5.55848C0.834031 4.05259 2.05816 2.83187 3.56804 2.83187C5.07804 2.83187 6.30217 4.05259 6.30217 5.55848C6.30217 7.06438 5.07804 8.2851 3.56804 8.2851ZM9.86737 8.29716C8.35749 8.29716 7.13347 7.07644 7.13347 5.57055C7.13347 4.06465 8.3576 2.84393 9.86737 2.84393C11.3775 2.84393 12.6014 4.06465 12.6014 5.57055C12.6014 7.07644 11.3774 8.29716 9.86737 8.29716ZM16.1718 8.29716C14.6619 8.29716 13.4378 7.07644 13.4378 5.57055C13.4378 4.06465 14.662 2.84393 16.1718 2.84393C17.6819 2.84393 18.9058 4.06465 18.9058 5.57055C18.9058 7.07644 17.6819 8.29716 16.1718 8.29716ZM14.5716 4.83279L15.4367 4.83268L15.6354 4.82289L15.6356 7.20185H16.706V4.823L16.904 4.83268L17.7697 4.83279V3.93981H14.5715V4.83279H14.5716ZM1.96769 4.83279L2.83279 4.83268L3.03148 4.82289L3.0316 7.20185H4.10199V4.823L4.3 4.83268L5.16578 4.83279V3.93981H1.96769V4.83279ZM10.452 5.60309L10.4124 5.53994L9.2689 3.93981H8.27328V7.20185L9.28392 7.20208L9.28426 5.5388L9.32387 5.60184L10.462 7.20219L11.4593 7.20196V3.93981H10.452V5.60309Z" fill="#FF6600"/>
<path fill-rule="evenodd" clip-rule="evenodd" d="M9.28422 5.53878L9.28388 7.20206L8.53303 7.20195V7.35239L9.54379 7.35262L9.54402 5.91147L9.32382 5.60182L9.28422 5.53878ZM7.39334 5.72108C7.39334 4.21519 8.61736 2.99447 10.1274 2.99447C10.5744 2.99447 10.9957 3.10212 11.3683 3.29182C10.9374 3.00892 10.4217 2.8438 9.86732 2.8438C8.35744 2.8438 7.13342 4.06452 7.13342 5.57041C7.13342 6.63056 7.74043 7.54869 8.62646 7.99967C7.88381 7.51227 7.39334 6.67403 7.39334 5.72108ZM10.7217 7.3525L11.7191 7.35227V4.09035H11.4593V7.20183L10.6148 7.20195L10.7217 7.3525ZM10.4519 5.60307V5.38242L9.52877 4.09035H9.37651L10.4124 5.53992L10.4519 5.60307ZM13.0197 3.90178C13.0456 3.85319 13.0741 3.80619 13.102 3.75908C12.7686 3.25734 12.3125 2.84391 11.7746 2.5642C12.2969 2.89432 12.7281 3.3551 13.0197 3.90178ZM16.7059 4.82298V7.20183H15.8954V7.35227H16.9657V4.97354L17.1637 4.98321L18.0296 4.98344V4.09035H17.7696V4.83266L16.9039 4.83254L16.7059 4.82298ZM14.8313 4.98344L15.6352 4.98321V4.82287L15.4365 4.83266H14.8313V4.98344ZM13.6978 5.72108C13.6978 4.21519 14.9218 2.99447 16.4318 2.99447C16.8788 2.99447 17.3002 3.10212 17.6728 3.29182C17.2418 3.00892 16.7262 2.8438 16.1718 2.8438C14.6619 2.8438 13.4378 4.06452 13.4378 5.57041C13.4378 6.63056 14.0449 7.5488 14.931 7.99979C14.1884 7.51239 13.6978 6.67403 13.6978 5.72108ZM9.86732 9.12901C9.27318 9.12901 8.71306 8.98392 8.2202 8.72764C8.77201 9.07644 9.42567 9.27957 10.1274 9.27957C11.4341 9.27957 12.5755 8.57789 13.1971 7.53253C13.1339 7.43751 13.0736 7.34032 13.0197 7.23916C12.4201 8.3636 11.2334 9.12901 9.86732 9.12901ZM18.0879 2.56932C19.0809 3.20113 19.74 4.30873 19.74 5.57053C19.74 7.53594 18.1424 9.12913 16.1719 9.12913C15.578 9.12913 15.0181 8.98415 14.5256 8.7281C15.0773 9.07666 15.7306 9.27957 16.4319 9.27957C18.4024 9.27957 20 7.68639 20 5.72108C19.9998 4.35209 19.2243 3.16437 18.0879 2.56932ZM3.568 9.11706C2.97033 9.11706 2.40748 8.96981 1.91268 8.7108C2.46608 9.06278 3.12282 9.26762 3.82791 9.26762C5.13057 9.26762 6.26867 8.5706 6.89149 7.53105C6.82844 7.43614 6.76836 7.33919 6.71453 7.23813C6.11299 8.35643 4.9296 9.11706 3.568 9.11706ZM1.0939 5.70914C1.0939 4.20324 2.31792 2.98252 3.82791 2.98252C4.2748 2.98252 4.6962 3.09006 5.06866 3.27965C4.63782 2.99686 4.12231 2.83185 3.568 2.83185C2.058 2.83185 0.833984 4.05257 0.833984 5.55847C0.833984 6.61839 1.44087 7.53629 2.32645 7.9875C1.58414 7.49998 1.0939 6.66186 1.0939 5.70914ZM6.7209 3.89109C6.74696 3.84261 6.77553 3.79572 6.80375 3.74861C6.47032 3.24619 6.01387 2.8323 5.47549 2.55225C5.99805 2.88272 6.42935 3.34394 6.7209 3.89109ZM2.22756 4.98344L3.03144 4.98321V4.82287L2.83274 4.83266H2.22756V4.98344ZM4.10194 4.82298V7.20183H3.29135V7.35227H4.36174V4.97354L4.55987 4.98321L5.42565 4.98344V4.09035H5.16573V4.83266L4.29995 4.83254L4.10194 4.82298Z" fill="black"/>
</g>
<defs>
<clipPath id="clip0">
<rect width="20" height="22" fill="white"/>
</clipPath>
</defs>
</svg>
