<svg xmlns="http://www.w3.org/2000/svg" viewBox="107.5585 104.2993 493.543 216.5981" role="img" aria-label="Logo">
  <g fill="#ffffff" fill-rule="evenodd">
  <path d="M 585.7072 196.8761 L 585.7072 228.3228 C 585.7072 232.3336 584.1289 236.1453 581.2917 238.9825 C 578.4559 241.8191 574.6433 243.3975 570.6323 243.3975 L 544.4257 243.3975 C 540.415 243.3975 536.6032 241.8191 533.766 238.9825 C 530.9314 236.1453 529.3505 232.3336 529.3505 228.3228 L 529.3505 196.8761 C 529.3505 192.8634 530.9314 189.0522 533.766 186.2156 C 536.6032 183.3801 540.415 181.8009 544.4257 181.8009 L 570.6323 181.8009 C 574.6433 181.8009 578.4559 183.3801 581.2917 186.2156 C 584.1289 189.0522 585.7072 192.8634 585.7072 196.8761 Z M 240.8788 234.0417 L 240.8788 181.9197 C 240.8788 181.8542 240.9324 181.8009 240.9987 181.8009 L 244.7056 181.8009 C 244.7702 181.8009 244.8244 181.8542 244.8244 181.9197 L 244.8244 243.2773 C 244.8244 243.3272 244.7966 243.3694 244.7507 243.3884 C 244.7056 243.4071 244.6551 243.3975 244.6203 243.3632 L 192.4132 191.1558 L 192.4132 191.1564 L 188.4679 187.2114 L 188.4679 181.9197 C 188.4679 181.8709 188.4957 181.8284 188.5416 181.8094 C 188.587 181.7907 188.6366 181.8009 188.6726 181.8352 Z Z M 166.2083 181.9197 L 166.2083 243.2773 C 166.2083 243.3442 166.1539 243.3975 166.0881 243.3975 L 162.3813 243.3975 C 162.3161 243.3975 162.2628 243.3442 162.2628 243.2773 L 162.2628 181.9197 C 162.2628 181.8542 162.3161 181.8009 162.3813 181.8009 L 166.0881 181.8009 C 166.1539 181.8009 166.2083 181.8542 166.2083 181.9197 Z M 192.4132 198.1143 L 188.4679 194.1687 L 188.4679 243.2773 C 188.4679 243.3442 188.5215 243.3975 188.587 243.3975 L 192.2944 243.3975 C 192.3599 243.3975 192.4132 243.3442 192.4132 243.2773 Z Z M 284.345 189.6911 L 284.345 243.2773 C 284.345 243.3442 284.2909 243.3975 284.2248 243.3975 L 280.5191 243.3975 C 280.4536 243.3975 280.4 243.3442 280.4 243.2773 L 280.4 189.6911 Z Z M 280.4 185.7459 L 278.754 185.7459 L 256.1661 185.7459 C 256.1017 185.7459 256.0473 185.6923 256.0473 185.6257 L 256.0473 181.9197 C 256.0473 181.8542 256.1017 181.8009 256.1661 181.8009 L 308.5773 181.8009 C 308.6433 181.8009 308.6977 181.8542 308.6977 181.9197 L 308.6977 185.6257 C 308.6977 185.6923 308.6433 185.7459 308.5773 185.7459 L 285.9897 185.7459 L 284.345 185.7459 Z Z M 323.8651 185.7459 L 323.8651 239.4678 L 374.3036 239.4678 C 374.3685 239.4678 374.4224 239.5211 374.4224 239.5866 L 374.4224 243.2773 C 374.4224 243.3442 374.3685 243.3975 374.3036 243.3975 L 320.0403 243.3986 C 319.9734 243.3986 319.9198 243.345 319.9198 243.2784 L 319.9198 181.9197 C 319.9198 181.8542 319.9734 181.8009 320.0403 181.8009 L 374.3036 181.8009 C 374.3685 181.8009 374.4224 181.8542 374.4224 181.9197 L 374.4224 185.6257 C 374.4224 185.6923 374.3685 185.7459 374.3036 185.7459 Z Z M 341.5459 210.6443 L 374.3036 210.6443 C 374.3685 210.6443 374.4224 210.6981 374.4224 210.7647 L 374.4224 214.4328 C 374.4224 214.4994 374.3685 214.553 374.3036 214.553 L 341.5459 214.553 C 341.4801 214.553 341.4268 214.4994 341.4268 214.4328 L 341.4268 210.7647 C 341.4268 210.6981 341.4801 210.6443 341.5459 210.6443 Z M 389.1586 185.7459 L 389.1586 243.2773 C 389.1586 243.3442 389.1053 243.3975 389.0398 243.3975 L 385.3485 243.3975 C 385.2819 243.3975 385.2286 243.3442 385.2286 243.2773 L 385.2281 181.9197 C 385.2281 181.8542 385.2819 181.8009 385.3471 181.8009 L 425.1781 181.8009 C 434.2346 181.8009 441.5757 189.1412 441.5757 198.1973 C 441.5757 205.242 437.0746 211.4924 430.4279 213.736 L 459.8864 243.1934 C 459.9215 243.2277 459.9303 243.2773 459.9113 243.3235 C 459.8926 243.3688 459.8504 243.3975 459.8022 243.3975 L 454.5607 243.3975 C 454.5272 243.3975 454.4994 243.3867 454.4759 243.3632 L 425.6997 214.5864 C 425.526 214.5915 425.3519 214.5955 425.1781 214.5955 L 406.8471 214.5955 C 406.7816 214.5955 406.7283 214.5419 406.7283 214.4764 L 406.7283 210.7696 C 406.7283 210.7038 406.7816 210.6505 406.8471 210.6505 L 425.1781 210.6505 C 432.0556 210.6505 437.631 205.075 437.631 198.1973 C 437.631 191.3199 432.0556 185.7459 425.1781 185.7459 Z Z M 467.7831 198.1143 L 463.837 194.1687 L 463.837 243.2773 C 463.837 243.3442 463.8915 243.3975 463.9569 243.3975 L 467.663 243.3975 C 467.7284 243.3975 467.7831 243.3442 467.7831 243.2773 Z Z M 516.2488 234.0417 L 516.2488 181.9197 C 516.2488 181.8542 516.3024 181.8009 516.3676 181.8009 L 520.075 181.8009 C 520.1405 181.8009 520.1943 181.8542 520.1943 181.9197 L 520.1943 243.2773 C 520.1943 243.3272 520.166 243.3694 520.1195 243.3884 C 520.075 243.4071 520.024 243.3975 519.9894 243.3632 L 467.7831 191.1558 L 467.7831 191.1564 L 463.837 187.2114 L 463.837 181.9197 C 463.837 181.8709 463.8657 181.8284 463.9119 181.8094 C 463.9569 181.7907 464.0066 181.8009 464.0411 181.8352 Z Z M 581.7623 228.3228 L 581.7623 196.8761 C 581.7623 193.9139 580.5961 191.0991 578.503 189.006 C 576.4085 186.9112 573.5937 185.7459 570.6323 185.7459 L 544.4257 185.7459 C 541.4647 185.7459 538.651 186.9112 536.557 189.006 C 534.4622 191.0991 533.2958 193.9136 533.2958 196.8761 L 533.2958 228.3228 C 533.2958 231.2839 534.4622 234.0984 536.557 236.1929 C 538.651 238.2866 541.4647 239.4525 544.4257 239.4525 L 570.6323 239.4525 C 573.5942 239.4525 576.4079 238.2866 578.503 236.1929 C 580.5961 234.0984 581.7623 231.2853 581.7623 228.3228" />
  <path d="M 320.9658 106.5198 C 320.9658 106.4175 321.3805 106.3341 321.8933 106.3341 C 322.4038 106.3341 322.8188 106.4175 322.8188 106.5198 L 322.8188 177.1226 C 322.8188 177.2238 322.4038 177.3066 321.8933 177.3066 C 321.3805 177.3066 320.9658 177.2238 320.9658 177.1226 Z" />
  <path d="M 385.0277 106.5558 C 384.9284 106.4552 385.255 106.3585 385.7562 106.3378 C 386.2585 106.3174 386.7463 106.3832 386.8452 106.4838 L 457.4475 177.0852 C 457.5475 177.1864 457.221 177.2836 456.7192 177.3037 C 456.2181 177.3236 455.7297 177.2587 455.6305 177.1575 Z" />
  <path d="M 109.6588 106.5558 C 109.5585 106.4552 109.8839 106.3585 110.3859 106.3378 C 110.8877 106.3174 111.3752 106.3832 111.4756 106.4838 L 182.0784 177.0852 C 182.1776 177.1864 181.8527 177.2836 181.3504 177.3037 C 180.849 177.3236 180.3611 177.2587 180.2605 177.1575 Z" />
  <path d="M 373.3758 106.5198 C 373.3758 106.4175 373.7908 106.3341 374.3036 106.3341 C 374.8144 106.3341 375.2297 106.4175 375.2297 106.5198 L 375.2297 177.1226 C 375.2297 177.2238 374.8144 177.3066 374.3036 177.3066 C 373.7908 177.3066 373.3758 177.2238 373.3758 177.1226 Z" />
  <path d="M 241.9248 106.5198 C 241.9248 106.4175 242.3398 106.3341 242.8517 106.3341 C 243.3631 106.3341 243.7778 106.4175 243.7778 106.5198 L 243.7778 177.1226 C 243.7778 177.2238 243.3631 177.3066 242.8517 177.3066 C 242.3398 177.3066 241.9248 177.2238 241.9248 177.1226 Z" />
  <path d="M 373.3758 284.8156 C 373.3758 284.713 373.7908 284.6299 374.3036 284.6299 C 374.8144 284.6299 375.2297 284.713 375.2297 284.8156 L 375.2297 318.6766 C 375.2297 318.7792 374.8144 318.8625 374.3036 318.8625 C 373.7908 318.8625 373.3758 318.7792 373.3758 318.6766 Z" />
  <path d="M 287.9549 284.8519 C 287.8543 284.7507 288.18 284.6529 288.682 284.6328 C 289.1837 284.6135 289.6713 284.679 289.7708 284.7796 L 323.6323 318.64 C 323.7324 318.7412 323.4073 318.8384 322.9055 318.8589 C 322.4032 318.8787 321.9163 318.8132 321.8165 318.7126 Z" />
  <path d="M 241.9248 284.8156 C 241.9248 284.713 242.3398 284.6299 242.8517 284.6299 C 243.3631 284.6299 243.7778 284.713 243.7778 284.8156 L 243.7778 318.6766 C 243.7778 318.7792 243.3631 318.8625 242.8517 318.8625 C 242.3398 318.8625 241.9248 318.7792 241.9248 318.6766 Z" />
  <path d="M 563.3235 284.8519 C 563.2234 284.7507 563.55 284.6529 564.0517 284.6328 C 564.5526 284.6135 565.0413 284.679 565.1408 284.7796 L 599.0031 318.64 C 599.1015 318.7412 598.7769 318.8384 598.2752 318.8589 C 597.774 318.8787 597.2854 318.8132 597.1853 318.7126 Z" />
  <path d="M 235.544 221.4729 L 237.0971 181.9514 C 237.1008 181.8644 237.1734 181.7958 237.2604 181.7981 C 237.3463 181.7995 237.4169 181.8709 237.4169 181.9582 L 237.422 225.0375 C 237.422 225.1041 237.3837 225.1599 237.3231 225.1854 C 237.2627 225.2112 237.1966 225.1973 237.1501 225.1517 L 193.9581 182.0713 C 193.9107 182.024 193.8969 181.9582 193.9226 181.897 C 193.9473 181.8363 194.0037 181.7981 194.0706 181.7981 L 194.0766 181.7981 C 194.1202 181.7981 194.1565 181.8131 194.1883 181.8431 Z" />
  <path d="M 231.1458 210.875 L 232.6918 181.9494 C 232.6963 181.8638 232.7658 181.7981 232.8514 181.7981 L 232.8596 181.7981 C 232.9478 181.7981 233.0192 181.8698 233.0192 181.9582 L 233.0192 214.4328 C 233.0192 214.4994 232.9815 214.5547 232.9209 214.5807 C 232.8596 214.6065 232.7927 214.5924 232.7465 214.5459 L 200.2 182.0713 C 200.1529 182.024 200.139 181.9582 200.1648 181.897 C 200.1892 181.8363 200.2459 181.7981 200.3125 181.7981 L 200.3216 181.7981 C 200.3635 181.7981 200.4001 181.8128 200.4307 181.8409 Z" />
  <path d="M 226.7518 200.2836 L 228.2837 181.9443 C 228.2913 181.8616 228.3599 181.7981 228.4438 181.7981 L 228.456 181.7981 C 228.5442 181.7981 228.6159 181.8698 228.6159 181.9582 L 228.6159 203.8306 C 228.6159 203.8964 228.5782 203.9528 228.5172 203.9789 C 228.456 204.0044 228.3905 203.9905 228.3437 203.9443 L 206.4492 182.0713 C 206.4025 182.024 206.3886 181.9582 206.4144 181.897 C 206.439 181.8363 206.4954 181.7981 206.562 181.7981 L 206.5757 181.7981 C 206.617 181.7981 206.6533 181.8122 206.6842 181.84 Z" />
  <path d="M 418.1513 318.8974 C 417.543 318.8974 417.0504 318.799 417.0504 318.6766 C 417.0504 318.5555 417.543 318.4566 418.1513 318.4566 C 432.7234 318.4566 446.7087 315.3677 459.4844 309.7993 C 472.9195 303.9449 484.9101 295.3707 494.7636 284.7762 C 494.8719 284.6569 495.4436 284.5792 496.0392 284.5996 C 496.6356 284.6209 497.0296 284.7362 496.9213 284.8556 C 487.0355 295.4852 474.9888 304.0938 461.4775 309.9816 C 448.3225 315.7161 433.6747 318.8974 418.1513 318.8974 Z M 519.2396 177.1067 C 519.2816 177.2269 518.8258 177.3332 518.2209 177.3414 C 517.6157 177.3502 517.0895 177.2587 517.0476 177.1379 C 509.6537 156.3004 495.9332 138.4609 478.1988 125.9391 C 461.0699 113.8454 440.3438 106.7398 418.1513 106.7398 C 417.543 106.7398 417.0504 106.6411 417.0504 106.5198 C 417.0504 106.3982 417.543 106.2993 418.1513 106.2993 C 441.4646 106.2993 462.8974 113.5245 480.3131 125.8209 C 498.0875 138.3713 511.8369 156.2406 519.2396 177.1067" />
  <path d="M 196.3879 269.2089 L 196.3879 269.2089 C 196.0909 269.9241 195.6107 270.4947 194.944 270.9224 C 194.2787 271.3482 193.5377 271.5614 192.7199 271.5614 C 191.5985 271.5614 190.6447 271.1637 189.8558 270.3691 C 189.068 269.5771 188.6737 268.6142 188.6737 267.4843 C 188.6737 266.3513 189.068 265.3878 189.8558 264.5944 C 190.6432 263.8004 191.5963 263.4033 192.7174 263.4033 C 193.5417 263.4033 194.288 263.6201 194.9587 264.053 C 195.6305 264.4875 196.1152 265.0686 196.4191 265.7974 L 196.4191 265.7974 L 194.7668 265.7974 L 194.7668 265.7974 C 194.5222 265.4779 194.2084 265.2214 193.8285 265.0326 C 193.4478 264.8441 193.0589 264.7489 192.6635 264.7489 C 191.9747 264.7489 191.3788 265.0119 190.8771 265.5403 C 190.3759 266.067 190.1262 266.6974 190.1262 267.4276 C 190.1262 268.2063 190.3822 268.8659 190.8941 269.4053 C 191.4055 269.9456 192.0314 270.2158 192.7695 270.2158 C 193.1352 270.2158 193.494 270.1242 193.8501 269.9419 C 194.205 269.7597 194.5001 269.5153 194.7339 269.2089 L 194.7339 269.2089 Z Z M 205.903 271.4032 L 205.903 263.562 L 205.903 263.562 L 206.6275 263.562 L 206.6275 263.562 L 208.2036 263.562 C 209.1328 263.562 209.8556 263.7732 210.3701 264.195 C 210.8815 264.6176 211.1374 265.2135 211.1374 265.9791 C 211.1374 266.8414 210.8784 267.4948 210.3568 267.9359 C 210.0325 268.204 209.6116 268.3951 209.0948 268.5104 L 209.0948 268.5104 L 211.216 271.4032 L 211.216 271.4032 L 210.3605 271.4032 L 209.5027 271.4032 L 209.5027 271.4032 L 207.3555 268.2718 L 207.3555 268.2718 L 207.3555 271.4032 L 207.3555 271.4032 L 206.6289 271.4032 Z Z M 207.3555 267.3227 L 207.3555 267.3227 L 208.0956 267.3227 C 208.6251 267.3227 209.0222 267.2221 209.287 267.0231 C 209.5537 266.8221 209.6864 266.5222 209.6864 266.1208 C 209.6864 265.7152 209.5537 265.4122 209.287 265.2112 C 209.0222 265.0077 208.6251 264.9076 208.0956 264.9076 L 207.3555 264.9076 L 207.3555 264.9076 Z Z M 220.6658 271.4032 L 220.6658 271.4032 L 220.6658 263.562 L 220.6658 263.562 L 224.8832 263.562 L 224.8832 263.562 L 224.8832 264.2318 L 224.8832 264.9076 L 224.8832 264.9076 L 222.118 264.9076 L 222.118 264.9076 L 222.118 266.8459 L 222.118 266.8459 L 224.7565 266.8459 L 224.7565 267.5152 L 224.7565 268.1921 L 224.7565 268.1921 L 222.118 268.1921 L 222.118 268.1921 L 222.118 270.0562 L 222.118 270.0562 L 224.8832 270.0562 L 224.8832 270.0562 L 224.8832 270.726 L 224.8832 271.4032 L 224.8832 271.4032 Z Z M 234.2531 271.4032 L 237.5323 263.562 L 238.0941 263.562 L 238.6556 263.562 L 241.9367 271.4032 L 241.9367 271.4032 L 241.1456 271.4032 L 240.3499 271.4032 L 240.3499 271.4032 L 239.5701 269.3787 L 239.5701 269.3787 L 236.615 269.3787 L 236.615 269.3787 L 235.851 271.4032 L 235.851 271.4032 L 235.0548 271.4032 Z Z M 238.0822 265.523 L 237.1266 268.0328 L 237.1266 268.0328 L 239.0528 268.0328 L 239.0528 268.0328 Z Z M 252.1967 271.4032 L 252.1967 264.9076 L 252.1967 264.9076 L 250.7343 264.9076 L 250.7343 264.9076 L 250.7343 264.2361 L 250.7343 263.562 L 250.7343 263.562 L 255.1102 263.562 L 255.1102 263.562 L 255.1102 264.2318 L 255.1102 264.9076 L 255.1102 264.9076 L 253.6486 264.9076 L 253.6486 264.9076 L 253.6486 271.4032 L 253.6486 271.4032 L 252.9218 271.4032 Z Z M 264.5337 271.4032 L 264.5337 263.562 L 264.5337 263.562 L 265.2582 263.562 L 265.9847 263.562 L 265.9847 263.562 L 265.9847 271.4032 L 265.9847 271.4032 L 265.2582 271.4032 Z Z M 275.4689 263.562 L 275.4689 263.562 L 276.2306 263.562 L 276.9965 263.562 L 276.9965 263.562 L 279.112 269.5485 L 279.1086 269.5485 L 279.1086 269.5485 L 281.2263 263.562 L 281.2263 263.562 L 281.9877 263.562 L 282.7542 263.562 L 282.7542 263.562 L 279.697 271.4032 L 279.1154 271.4032 L 278.532 271.4032 Z Z M 292.0986 271.4032 L 292.0986 271.4032 L 292.0986 263.562 L 292.0986 263.562 L 296.316 263.562 L 296.316 263.562 L 296.316 264.2318 L 296.316 264.9076 L 296.316 264.9076 L 293.5511 264.9076 L 293.5511 264.9076 L 293.5511 266.8459 L 293.5511 266.8459 L 296.1882 266.8459 L 296.1882 267.5152 L 296.1882 268.1921 L 296.1882 268.1921 L 293.5511 268.1921 L 293.5511 268.1921 L 293.5511 270.0562 L 293.5511 270.0562 L 296.316 270.0562 L 296.316 270.0562 L 296.316 270.726 L 296.316 271.4032 L 296.316 271.4032 Z Z M 313.9364 271.4032 L 313.9364 263.562 L 313.9364 263.562 L 314.6632 263.562 L 315.3889 263.562 L 315.3889 263.562 L 315.3889 271.4032 L 315.3889 271.4032 L 314.6632 271.4032 Z Z M 326.9809 271.4032 L 326.9809 271.4032 L 326.2561 271.4032 L 325.5299 271.4032 L 325.5299 271.4032 L 325.5299 263.562 L 325.5299 263.562 L 326.3647 263.562 L 327.198 263.562 L 327.198 263.562 L 330.4562 269.2917 L 330.4562 269.2917 L 330.4562 269.2917 L 330.4562 263.562 L 330.4562 263.562 L 331.1827 263.562 L 331.9087 263.562 L 331.9087 263.562 L 331.9087 271.4032 L 331.1101 271.4032 L 330.3074 271.4032 L 326.9809 265.6256 L 326.9809 265.6256 L 326.9809 265.6256 Z Z M 342.805 271.4032 L 342.805 264.9076 L 342.805 264.9076 L 341.3435 264.9076 L 341.3435 264.9076 L 341.3435 264.2361 L 341.3435 263.562 L 341.3435 263.562 L 345.7196 263.562 L 345.7196 263.562 L 345.7196 264.2318 L 345.7196 264.9076 L 345.7196 264.9076 L 344.2569 264.9076 L 344.2569 264.9076 L 344.2569 271.4032 L 344.2569 271.4032 L 343.531 271.4032 Z Z M 355.0258 271.4032 L 355.0258 271.4032 L 355.0258 263.562 L 355.0258 263.562 L 359.2429 263.562 L 359.2429 263.562 L 359.2429 264.2318 L 359.2429 264.9076 L 359.2429 264.9076 L 356.4774 264.9076 L 356.4774 264.9076 L 356.4774 266.8459 L 356.4774 266.8459 L 359.1156 266.8459 L 359.1156 267.5152 L 359.1156 268.1921 L 359.1156 268.1921 L 356.4774 268.1921 L 356.4774 268.1921 L 356.4774 270.0562 L 356.4774 270.0562 L 359.2429 270.0562 L 359.2429 270.0562 L 359.2429 270.726 L 359.2429 271.4032 L 359.2429 271.4032 Z Z M 369.2157 271.4032 L 369.2157 263.562 L 369.2157 263.562 L 369.9403 263.562 L 369.9403 263.562 L 371.5155 263.562 C 372.4461 263.562 373.1681 263.7732 373.6831 264.195 C 374.1942 264.6176 374.4507 265.2135 374.4507 265.9791 C 374.4507 266.8414 374.1905 267.4948 373.6698 267.9359 C 373.3449 268.204 372.9243 268.3951 372.4078 268.5104 L 372.4078 268.5104 L 374.5281 271.4032 L 374.5281 271.4032 L 373.6735 271.4032 L 372.8157 271.4032 L 372.8157 271.4032 L 370.6673 268.2718 L 370.6673 268.2718 L 370.6673 271.4032 L 370.6673 271.4032 L 369.9414 271.4032 Z Z M 370.6673 267.3227 L 370.6673 267.3227 L 371.4077 267.3227 C 371.9378 267.3227 372.335 267.2221 372.6 267.0231 C 372.8667 266.8221 372.9991 266.5222 372.9991 266.1208 C 372.9991 265.7152 372.8667 265.4122 372.6 265.2112 C 372.335 265.0077 371.9378 264.9076 371.4077 264.9076 L 370.6673 264.9076 L 370.6673 264.9076 Z Z M 384.0953 271.4032 L 384.0953 263.562 L 384.0953 263.562 L 384.8216 263.562 L 385.5475 263.562 L 385.5475 263.562 L 385.5475 271.4032 L 385.5475 271.4032 L 384.8216 271.4032 Z Z M 399.3917 271.5614 C 398.2575 271.5614 397.292 271.1637 396.4944 270.3691 C 395.6964 269.5743 395.297 268.6122 395.297 267.482 C 395.297 266.3504 395.6964 265.3878 396.4944 264.5935 C 397.292 263.8004 398.2575 263.4033 399.3917 263.4033 C 400.5286 263.4033 401.4975 263.8004 402.2929 264.5935 C 403.0894 265.3878 403.4874 266.3504 403.4874 267.482 C 403.4874 268.6122 403.0894 269.5743 402.2929 270.3691 C 401.4975 271.1637 400.5286 271.5614 399.3917 271.5614 Z M 399.3917 270.2158 C 400.1298 270.2158 400.7554 269.9507 401.2665 269.4212 C 401.779 268.8917 402.035 268.2454 402.035 267.482 C 402.035 266.717 401.779 266.0712 401.2665 265.5406 C 400.7554 265.0128 400.1298 264.7489 399.3917 264.7489 C 398.6529 264.7489 398.0288 265.0128 397.516 265.5406 C 397.0046 266.0712 396.7478 266.717 396.7478 267.482 C 396.7478 268.2454 397.0046 268.8917 397.516 269.4212 C 398.0288 269.9507 398.6529 270.2158 399.3917 270.2158 Z M 413.1723 271.4032 L 413.1723 263.562 L 413.1723 263.562 L 413.8963 263.562 L 413.8963 263.562 L 415.4723 263.562 C 416.4018 263.562 417.1241 263.7732 417.6386 264.195 C 418.1513 264.6176 418.4067 265.2135 418.4067 265.9791 C 418.4067 266.8414 418.1474 267.4948 417.6264 267.9359 C 417.3012 268.204 416.8806 268.3951 416.3638 268.5104 L 416.3638 268.5104 L 418.485 271.4032 L 418.485 271.4032 L 417.6306 271.4032 L 416.7711 271.4032 L 416.7711 271.4032 L 414.625 268.2718 L 414.625 268.2718 L 414.625 271.4032 L 414.625 271.4032 L 413.8985 271.4032 Z Z M 414.625 267.3227 L 414.625 267.3227 L 415.3635 267.3227 C 415.8941 267.3227 416.2912 267.2221 416.5569 267.0231 C 416.8233 266.8221 416.9554 266.5222 416.9554 266.1208 C 416.9554 265.7152 416.8233 265.4122 416.5569 265.2112 C 416.2912 265.0077 415.8941 264.9076 415.3635 264.9076 L 414.625 264.9076 L 414.625 264.9076 Z Z M 438.4066 265.6279 L 438.4066 265.6279 C 438.3754 265.3348 438.2858 265.114 438.1404 264.9671 C 437.9927 264.8209 437.7937 264.7489 437.5375 264.7489 C 437.2968 264.7489 437.0998 264.8251 436.947 264.9779 C 436.7937 265.1301 436.7169 265.3257 436.7169 265.5641 C 436.7169 265.8136 436.7937 266.0083 436.9499 266.1472 C 437.1021 266.2813 437.3983 266.4264 437.8399 266.5789 C 438.6481 266.8559 439.2224 267.1807 439.5645 267.558 C 439.9053 267.9339 440.0759 268.4308 440.0759 269.0479 C 440.0759 269.7849 439.8367 270.387 439.3619 270.8564 C 438.8862 271.3267 438.2765 271.5614 437.5324 271.5614 C 436.8291 271.5614 436.2429 271.3408 435.7718 270.8972 C 435.3024 270.4556 435.0396 269.8779 434.9835 269.1661 L 434.9835 269.1661 L 436.5094 269.1661 L 436.5094 269.1661 C 436.5468 269.5077 436.6568 269.767 436.8365 269.9465 C 437.0168 270.1256 437.2605 270.2158 437.5661 270.2158 C 437.8819 270.2158 438.1413 270.1242 438.3411 269.9408 C 438.5421 269.756 438.6433 269.5196 438.6433 269.2279 C 438.6433 268.9107 438.546 268.6601 438.3488 268.4801 C 438.156 268.3032 437.7759 268.1193 437.2112 267.9259 C 436.5125 267.6867 436.019 267.395 435.7259 267.0495 C 435.4328 266.7039 435.2868 266.2419 435.2868 265.6667 C 435.2868 265.0023 435.5014 264.4606 435.9322 264.0374 C 436.3637 263.6153 436.9181 263.4033 437.5925 263.4033 C 438.2172 263.4033 438.7504 263.6153 439.1901 264.0399 C 439.6317 264.4657 439.8684 264.9935 439.9007 265.6279 L 439.9007 265.6279 Z Z M 453.4546 271.5614 C 452.3216 271.5614 451.3555 271.1637 450.5576 270.3691 C 449.7591 269.5743 449.3597 268.6122 449.3597 267.482 C 449.3597 266.3504 449.7591 265.3878 450.5576 264.5935 C 451.3555 263.8004 452.3216 263.4033 453.4546 263.4033 C 454.5918 263.4033 455.5607 263.8004 456.3564 264.5935 C 457.1527 265.3878 457.5506 266.3504 457.5506 267.482 C 457.5506 268.6122 457.1527 269.5743 456.3564 270.3691 C 455.5607 271.1637 454.5918 271.5614 453.4546 271.5614 Z M 453.4546 270.2158 C 454.1933 270.2158 454.8178 269.9507 455.3306 269.4212 C 455.8422 268.8917 456.0987 268.2454 456.0987 267.482 C 456.0987 266.717 455.8422 266.0712 455.3306 265.5406 C 454.8178 265.0128 454.1933 264.7489 453.4546 264.7489 C 452.7173 264.7489 452.092 265.0128 451.5803 265.5406 C 451.0675 266.0712 450.8116 266.717 450.8116 267.482 C 450.8116 268.2454 451.0675 268.8917 451.5803 269.4212 C 452.092 269.9507 452.7173 270.2158 453.4546 270.2158 Z M 467.3203 271.4032 L 467.3203 271.4032 L 467.3203 263.562 L 467.3203 263.562 L 468.0465 263.562 L 468.7724 263.562 L 468.7724 263.562 L 468.7724 270.0562 L 468.7724 270.0562 L 471.1666 270.0562 L 471.1666 270.0562 L 471.1666 270.726 L 471.1666 271.4032 L 471.1666 271.4032 Z Z M 486.0677 268.4705 C 486.0677 269.462 485.8257 270.224 485.3395 270.7603 C 484.8557 271.2952 484.1623 271.5614 483.2626 271.5614 C 482.3643 271.5614 481.6721 271.2952 481.1851 270.7603 C 480.6958 270.224 480.4515 269.462 480.4515 268.4705 L 480.4515 263.562 L 480.4515 263.562 L 481.1777 263.562 L 481.9039 263.562 L 481.9039 263.562 L 481.9039 268.5419 C 481.9039 269.1015 482.0159 269.5196 482.2424 269.7985 C 482.4669 270.076 482.8073 270.2158 483.2626 270.2158 C 483.7141 270.2158 484.0534 270.076 484.2771 269.7985 C 484.5025 269.5196 484.6161 269.1015 484.6161 268.5419 L 484.6161 263.562 L 484.6161 263.562 L 485.3421 263.562 L 486.0677 263.562 L 486.0677 263.562 Z Z M 496.8275 271.4032 L 496.8275 264.9076 L 496.8275 264.9076 L 495.3657 264.9076 L 495.3657 264.9076 L 495.3657 264.2361 L 495.3657 263.562 L 495.3657 263.562 L 499.7409 263.562 L 499.7409 263.562 L 499.7409 264.2318 L 499.7409 264.9076 L 499.7409 264.9076 L 498.2788 264.9076 L 498.2788 264.9076 L 498.2788 271.4032 L 498.2788 271.4032 L 497.5532 271.4032 Z Z M 509.1636 271.4032 L 509.1636 263.562 L 509.1636 263.562 L 509.8895 263.562 L 510.6163 263.562 L 510.6163 263.562 L 510.6163 271.4032 L 510.6163 271.4032 L 509.8895 271.4032 Z Z M 524.4596 271.5614 C 523.326 271.5614 522.3603 271.1637 521.5626 270.3691 C 520.7644 269.5743 520.3655 268.6122 520.3655 267.482 C 520.3655 266.3504 520.7644 265.3878 521.5626 264.5935 C 522.3603 263.8004 523.326 263.4033 524.4596 263.4033 C 525.5966 263.4033 526.5655 263.8004 527.3609 264.5935 C 528.158 265.3878 528.5551 266.3504 528.5551 267.482 C 528.5551 268.6122 528.158 269.5743 527.3609 270.3691 C 526.5655 271.1637 525.5966 271.5614 524.4596 271.5614 Z M 524.4596 270.2158 C 525.1989 270.2158 525.8239 269.9507 526.3359 269.4212 C 526.8472 268.8917 527.1032 268.2454 527.1032 267.482 C 527.1032 266.717 526.8472 266.0712 526.3359 265.5406 C 525.8239 265.0128 525.1989 264.7489 524.4596 264.7489 C 523.722 264.7489 523.0967 265.0128 522.5854 265.5406 C 522.0726 266.0712 521.8157 266.717 521.8157 267.482 C 521.8157 268.2454 522.0726 268.8917 522.5854 269.4212 C 523.0967 269.9507 523.722 270.2158 524.4596 270.2158 Z M 539.7565 271.4032 L 539.7565 271.4032 L 539.0308 271.4032 L 538.3043 271.4032 L 538.3043 271.4032 L 538.3043 263.562 L 538.3043 263.562 L 539.14 263.562 L 539.9739 263.562 L 539.9739 263.562 L 543.2312 269.2917 L 543.2312 269.2917 L 543.2312 269.2917 L 543.2312 263.562 L 543.2312 263.562 L 543.9572 263.562 L 544.6831 263.562 L 544.6831 263.562 L 544.6831 271.4032 L 543.8846 271.4032 L 543.0815 271.4032 L 539.7565 265.6256 L 539.7565 265.6256 L 539.7565 265.6256 Z Z M 557.6094 265.6279 L 557.6094 265.6279 C 557.5776 265.3348 557.4898 265.114 557.3429 264.9671 C 557.1958 264.8209 556.9965 264.7489 556.7411 264.7489 C 556.4996 264.7489 556.3023 264.8251 556.1512 264.9779 C 555.9973 265.1301 555.9197 265.3257 555.9197 265.5641 C 555.9197 265.8136 555.9973 266.0083 556.1527 266.1472 C 556.3046 266.2813 556.6011 266.4264 557.0425 266.5789 C 557.8515 266.8559 558.4258 267.1807 558.7685 267.558 C 559.1086 267.9339 559.2787 268.4308 559.2787 269.0479 C 559.2787 269.7849 559.0395 270.387 558.5638 270.8564 C 558.089 271.3267 557.479 271.5614 556.7352 271.5614 C 556.033 271.5614 555.446 271.3408 554.9743 270.8972 C 554.5052 270.4556 554.2421 269.8779 554.1868 269.1661 L 554.1868 269.1661 L 555.7136 269.1661 L 555.7136 269.1661 C 555.7499 269.5077 555.8596 269.767 556.039 269.9465 C 556.2196 270.1256 556.4636 270.2158 556.7683 270.2158 C 557.0847 270.2158 557.3443 270.1242 557.5442 269.9408 C 557.746 269.756 557.8458 269.5196 557.8458 269.2279 C 557.8458 268.9107 557.7489 268.6601 557.5516 268.4801 C 557.358 268.3032 556.9784 268.1193 556.414 267.9259 C 555.7161 267.6867 555.2218 267.395 554.9287 267.0495 C 554.6356 266.7039 554.4896 266.2419 554.4896 265.6667 C 554.4896 265.0023 554.7042 264.4606 555.1353 264.0374 C 555.5662 263.6153 556.1209 263.4033 556.7953 263.4033 C 557.42 263.4033 557.9538 263.6153 558.3929 264.0399 C 558.8345 264.4657 559.0723 264.9935 559.1035 265.6279 L 559.1035 265.6279 Z" />
  </g>
</svg>
