<svg width="42" height="32" viewBox="0 0 42 32" fill="none" xmlns="http://www.w3.org/2000/svg">
<g clip-path="url(#clip0_1554_102)">
<path d="M33.7856 32H3.93428C3.17446 32 2.48084 31.559 2.1463 30.8632C0.575782 27.5966 -0.153581 23.9758 0.0269248 20.342C0.20743 16.7083 1.29186 13.1812 3.17806 10.0934C5.06428 7.0055 7.69012 4.45852 10.8082 2.6926C13.9262 0.926668 17.4337 0 21 0C24.5662 0 28.0738 0.926668 31.1918 2.6926C34.3098 4.45852 36.9358 7.0055 38.822 10.0934C40.7082 13.1812 41.7926 16.7083 41.973 20.342C42.1536 23.9758 41.4242 27.5966 39.8536 30.8632C39.5192 31.559 38.8256 32 38.0658 32H33.7856Z" fill="white"/>
<path d="M8.24422 29.5C6.7271 27.1832 5.86438 24.499 5.74744 21.7316C5.63048 18.9644 6.26362 16.2169 7.57984 13.7802C8.89606 11.3434 10.8464 9.30807 13.2243 7.88955C15.6023 6.47101 18.3194 5.72211 21.088 5.72211C23.8566 5.72211 26.5738 6.47101 28.9516 7.88955C31.3296 9.30807 33.28 11.3434 34.5962 13.7802C35.9124 16.2169 36.5456 18.9644 36.4286 21.7316C36.3116 24.499 35.449 27.1832 33.9318 29.5H38.2304C39.6584 26.5882 40.3214 23.3608 40.1574 20.1216C39.9932 16.8824 39.0074 13.7385 37.2924 10.9861C35.5776 8.23363 33.1904 5.96343 30.356 4.38943C27.5214 2.81543 24.3328 1.9895 21.091 1.9895C17.849 1.9895 14.6605 2.81543 11.8259 4.38943C8.99134 5.96343 6.60414 8.23363 4.88932 10.9861C3.17452 13.7385 2.18858 16.8824 2.02448 20.1216C1.86037 23.3608 2.52348 26.5882 3.95132 29.5H8.24422Z" fill="#4A4AF4"/>
<path d="M21.3472 12.0228C18.5513 12.0228 15.3331 13.3427 13.5856 14.7354L15.1787 18.0948C16.5796 16.8128 18.8455 15.7173 20.887 15.7173C22.8296 15.7173 23.8986 16.3641 23.8986 17.6753C23.8986 18.5494 23.1878 19.0505 21.8452 19.1729C16.8097 19.6362 12.8954 21.2123 12.8954 25.0787C12.8954 28.1469 15.1059 29.9999 18.7435 29.9999C19.837 30.0013 20.9112 29.7115 21.8556 29.1599C22.8 28.6085 23.5806 27.8153 24.117 26.8619V29.4987H28.6544V18.4445C28.6544 13.8788 25.48 12.0345 21.3472 12.0345V12.0228ZM20.022 26.4541C18.5659 26.4541 17.7475 25.8247 17.7475 24.7933C17.7475 22.6371 20.3686 22.1185 23.8054 22.1185C23.8054 24.3737 22.2966 26.4541 20.0192 26.4541H20.022Z" fill="#060809"/>
</g>
<defs>
<clipPath id="clip0_1554_102">
<rect width="42" height="32" fill="white"/>
</clipPath>
</defs>
</svg>
