<svg width="32" height="32" viewBox="0 0 32 32" fill="none" xmlns="http://www.w3.org/2000/svg">
<g clip-path="url(#clip0_1554_98)">
<path d="M16 32C20.2435 32 24.3131 30.3143 27.3137 27.3137C30.3143 24.3131 32 20.2435 32 16C32 11.7565 30.3143 7.68687 27.3137 4.68629C24.3131 1.68571 20.2435 0 16 0C11.7565 0 7.68687 1.68571 4.68629 4.68629C1.68571 7.68687 0 11.7565 0 16C0 20.2435 1.68571 24.3131 4.68629 27.3137C7.68687 30.3143 11.7565 32 16 32Z" fill="#B2FCE4"/>
<path d="M25.126 10.3739L22.172 8.68395L19.176 6.96595C17.196 5.83195 14.72 7.25795 14.72 9.54595V9.92995C14.7193 10.0344 14.7468 10.1371 14.7996 10.2272C14.8524 10.3173 14.9285 10.3915 15.02 10.4419L16.41 11.2359C16.4979 11.2862 16.5975 11.3124 16.6987 11.312C16.8 11.3115 16.8993 11.2843 16.9868 11.2332C17.0742 11.1821 17.1466 11.1089 17.1966 11.0209C17.2467 10.9329 17.2727 10.8332 17.272 10.7319V9.81995C17.272 9.36795 17.758 9.08595 18.152 9.30795L20.884 10.8799L23.608 12.4399C23.6978 12.4912 23.7724 12.5652 23.8244 12.6546C23.8763 12.744 23.9036 12.8456 23.9036 12.9489C23.9036 13.0523 23.8763 13.1539 23.8244 13.2433C23.7724 13.3327 23.6978 13.4067 23.608 13.4579L20.884 15.0199L18.152 16.5919C18.0623 16.6433 17.9607 16.67 17.8574 16.6696C17.754 16.6691 17.6527 16.6414 17.5634 16.5893C17.4742 16.5372 17.4003 16.4625 17.3491 16.3727C17.298 16.2829 17.2714 16.1813 17.272 16.0779V15.6259C17.272 13.3379 14.796 11.9039 12.816 13.0459L9.82801 14.7719L6.87201 16.4639C6.41841 16.7253 6.04167 17.1016 5.77972 17.5549C5.51777 18.0081 5.37985 18.5224 5.37985 19.0459C5.37985 19.5695 5.51777 20.0838 5.77972 20.537C6.04167 20.9903 6.41841 21.3666 6.87201 21.6279L9.82801 23.3179L12.824 25.0359C14.804 26.1699 17.28 24.7439 17.28 22.4559V22.0719C17.2807 21.9675 17.2533 21.8648 17.2004 21.7747C17.1476 21.6846 17.0715 21.6104 16.98 21.5599L15.59 20.7659C15.5021 20.7157 15.4025 20.6894 15.3013 20.6899C15.2 20.6904 15.1007 20.7176 15.0133 20.7687C14.9259 20.8198 14.8535 20.893 14.8034 20.981C14.7533 21.069 14.7273 21.1687 14.728 21.2699V22.1839C14.7283 22.2871 14.7014 22.3885 14.6501 22.478C14.5988 22.5675 14.5249 22.6419 14.4357 22.6938C14.3465 22.7457 14.2453 22.7732 14.1421 22.7736C14.039 22.7739 13.9375 22.7472 13.848 22.6959L11.116 21.1239L8.39201 19.5639C8.30222 19.5127 8.22757 19.4387 8.17565 19.3493C8.12373 19.2599 8.09638 19.1583 8.09638 19.0549C8.09638 18.9516 8.12373 18.85 8.17565 18.7606C8.22757 18.6712 8.30222 18.5972 8.39201 18.5459L11.116 16.9839L13.848 15.4119C14.242 15.1919 14.728 15.4719 14.728 15.9259V16.3779C14.728 18.6659 17.204 20.0999 19.184 18.9559L22.182 17.2399L25.136 15.5499C27.116 14.3959 27.116 11.5199 25.126 10.3759V10.3739Z" fill="black"/>
</g>
<defs>
<clipPath id="clip0_1554_98">
<rect width="32" height="32" fill="white"/>
</clipPath>
</defs>
</svg>
