<svg width="34" height="32" viewBox="0 0 34 32" fill="none" xmlns="http://www.w3.org/2000/svg">
<path d="M20.952 18.23C24.9345 19.7831 28.9785 21.1736 33.074 22.398C35.316 23.318 33.074 28.538 30.706 27.46C28.026 26.306 22.636 23.946 18.536 21.928C16.256 24.578 12.676 28 7.576 28C3.044 28 0 25.364 0 21.438C0 18.13 2.314 14.79 7.48 14.79C10.44 14.79 13.48 15.62 17.116 16.87C17.788 15.538 18.348 14.148 18.792 12.714L5.652 12.708V10.706L12.41 10.722V8.1H4.176V6.128L12.41 6.134V3.208C12.41 2.442 12.826 2 13.552 2H17V6.146L25.16 6.152V8.106H17V10.74L23.678 10.758C23.678 10.758 22.852 14.988 20.956 18.23H20.952ZM1.854 21.27V21.268C1.854 23.148 3.336 25.048 6.944 25.048C9.73 25.048 12.458 23.4 15.068 20.148C11.58 18.424 9.71 17.594 7.008 17.594C4.384 17.594 1.854 18.854 1.854 21.27Z" fill="#1C9FE5"/>
</svg>
