<svg width="53" height="32" viewBox="0 0 53 32" fill="none" xmlns="http://www.w3.org/2000/svg">
<path d="M14.1217 1.00757C12.7261 1.00757 11.2614 1.65519 10.124 2.66491L9.99637 1.79852C9.96387 1.58033 9.7892 1.39579 9.53387 1.39579H8.3193C8.09704 1.39579 7.91599 1.57743 7.91599 1.79852C7.91599 7.31023 7.91599 12.8225 7.91599 18.3342C7.91599 18.5559 8.09762 18.7369 8.3193 18.7369H9.90642C10.1281 18.7369 10.3091 18.5553 10.3091 18.3342V12.624C11.316 13.5218 12.6251 14.0382 14.0248 14.0382C17.35 14.0382 19.316 11.1594 19.316 7.57658C19.316 4.22824 18.0306 1.00757 14.1217 1.00757ZM15.71 11.258C15.0914 11.8679 14.4009 12.0339 13.361 12.0339C12.4354 12.0339 11.2179 11.5511 10.3086 10.8791V4.11102C11.2556 3.3839 12.4632 2.99046 13.4701 2.99046C16.0988 2.99046 16.8149 5.05749 16.8149 7.42454C16.83 9.02037 16.5364 10.4433 15.71 11.258Z" fill="#333E47"/>
<path d="M30.9394 13.3337C30.9394 13.5554 30.7578 13.7365 30.535 13.7365H29.35C29.0941 13.7365 28.9194 13.5513 28.8863 13.3337L28.7674 12.5271C28.223 12.9879 27.5545 13.3929 26.8297 13.675C25.4364 14.2164 23.8296 14.3057 22.4682 13.4695C21.4834 12.8654 20.9612 11.6839 20.9612 10.4647C20.9612 9.52173 21.2519 8.58687 21.896 7.90849C22.7554 6.98117 24.0019 6.52563 25.5061 6.52563C26.4148 6.52563 27.7153 6.63241 28.6618 6.94171V5.31861C28.6618 3.66823 27.9671 2.95446 26.1351 2.95446C24.7349 2.95446 23.6636 3.16569 22.1734 3.62935C21.9349 3.63747 21.795 3.45584 21.795 3.23416V2.30858C21.795 2.08632 21.9848 1.87161 22.1902 1.80662C23.2545 1.34238 24.7627 1.05339 26.3655 1C28.4552 1 30.9389 1.4712 30.9389 4.6855V13.3337H30.9394ZM28.6623 10.9638V8.51491C27.8673 8.2973 26.5512 8.20735 26.0423 8.20735C25.238 8.20735 24.3571 8.39769 23.8969 8.89268C23.5534 9.25595 23.3978 9.77707 23.3978 10.2808C23.3978 10.9324 23.623 11.5859 24.1499 11.9091C24.7615 12.3246 25.7103 12.2741 26.6017 12.0205C27.4582 11.7779 28.2631 11.3474 28.6623 10.9638Z" fill="#333E47"/>
<path d="M33.1812 18.3127C33.1812 18.0121 33.1812 17.7423 33.1812 17.4417C33.1812 17.1939 33.3031 17.0227 33.5613 17.0384C34.0441 17.1069 34.7265 17.1753 35.2117 17.0755C35.8448 16.9438 36.2986 16.4952 36.5672 15.8801C36.9456 15.0143 37.1963 14.3162 37.3547 13.8583L32.5487 1.9517C32.4674 1.74975 32.4436 1.37488 32.8469 1.37488H34.5269C34.8472 1.37488 34.9778 1.57856 35.0498 1.77761L38.5345 11.4489L41.8608 1.77761C41.9287 1.57972 42.065 1.37488 42.3825 1.37488H43.9667C44.3677 1.37488 44.345 1.74917 44.265 1.9517L39.4972 14.2297C38.8803 15.8639 38.0586 18.4671 36.2075 18.9191C35.2796 19.1617 34.1085 19.0741 33.4209 18.7863C33.2473 18.6992 33.1812 18.4665 33.1812 18.3127Z" fill="#333E47"/>
<path d="M48.8168 17.8166C47.1919 17.8392 45.2735 18.203 43.8181 19.2244C43.3689 19.536 43.4478 19.9689 43.9475 19.9115C45.5839 19.7147 49.2265 19.2731 49.8776 20.1053C50.5304 20.9374 49.1557 24.3705 48.5481 25.906C48.3601 26.3638 48.7576 26.5536 49.1772 26.2054C51.8999 23.9248 52.6073 19.1437 52.0502 18.4561C51.7711 18.1119 50.4416 17.7939 48.8168 17.8166Z" fill="#F79C34"/>
<path d="M0.375557 19.5574C-0.00395989 19.6096 -0.167605 20.0907 0.229321 20.4719C7.04845 26.868 16.06 29.9999 26.0649 29.9999C33.2009 29.9999 41.4859 27.6717 47.2048 23.2841C48.1501 22.5546 47.3446 21.4613 46.3749 21.8931C39.9632 24.7221 32.9984 26.0858 26.6597 26.0858C17.2652 26.0858 8.17133 24.1244 0.813685 19.6694C0.653522 19.5719 0.502063 19.54 0.375557 19.5574Z" fill="#F79C34"/>
</svg>
