<svg width="32" height="32" viewBox="0 0 32 32" fill="none" xmlns="http://www.w3.org/2000/svg">
<g clip-path="url(#clip0_1555_166)">
<path d="M0 0H32V32H0V0Z" fill="black"/>
<path d="M19.308 7.63C18.508 8.58 17.226 9.328 15.941 9.222C15.781 7.937 16.41 6.572 17.145 5.725C17.945 4.75 19.349 4.053 20.486 4C20.618 5.338 20.099 6.653 19.308 7.63ZM20.474 9.477C18.614 9.371 17.026 10.534 16.141 10.534C15.247 10.534 13.897 9.531 12.427 9.558C10.517 9.584 8.74101 10.668 7.76601 12.396C5.76201 15.852 7.24401 20.966 9.18201 23.779C10.129 25.172 11.264 26.7 12.762 26.644C14.18 26.594 14.738 25.722 16.451 25.722C18.173 25.722 18.667 26.644 20.165 26.619C21.715 26.594 22.691 25.226 23.638 23.832C24.72 22.254 25.161 20.713 25.188 20.632C25.163 20.607 22.197 19.467 22.168 16.039C22.143 13.174 24.507 11.809 24.613 11.727C23.278 9.746 21.196 9.531 20.473 9.477H20.474Z" fill="white"/>
</g>
<defs>
<clipPath id="clip0_1555_166">
<rect width="32" height="32" fill="white"/>
</clipPath>
</defs>
</svg>
