<svg width="32" height="32" viewBox="0 0 32 32" fill="none" xmlns="http://www.w3.org/2000/svg">
<g clip-path="url(#clip0_1554_107)">
<path fill-rule="evenodd" clip-rule="evenodd" d="M9.99999 15V28H13V15H19V28H22V15H28V28H30C30.5304 28 31.0391 28.2107 31.4142 28.5858C31.7893 28.9609 32 29.4696 32 30V32H-1.32381e-05V30C-1.32381e-05 29.4696 0.2107 28.9609 0.585773 28.5858C0.960846 28.2107 1.46955 28 1.99999 28H3.99999V15H9.99999ZM16 0C25.362 5.144 30.362 7.9 31 8.268C31.3844 8.48977 31.6842 8.8331 31.852 9.24394C32.0199 9.65478 32.0463 10.1098 31.9272 10.5373C31.8081 10.9648 31.5501 11.3406 31.194 11.6054C30.8378 11.8702 30.4037 12.009 29.96 12H2.03999C1.59627 12.009 1.16216 11.8702 0.806007 11.6054C0.449858 11.3406 0.191906 10.9648 0.0727683 10.5373C-0.046369 10.1098 -0.0199227 9.65478 0.147943 9.24394C0.315808 8.8331 0.615556 8.48977 0.999987 8.268C1.63999 7.9 6.63999 5.144 16 0Z" fill="#3D3D3D"/>
</g>
<defs>
<clipPath id="clip0_1554_107">
<rect width="32" height="32" fill="white"/>
</clipPath>
</defs>
</svg>
