<svg width="32" height="32" viewBox="0 0 32 32" fill="none" xmlns="http://www.w3.org/2000/svg">
<path d="M27 0H5C2.23858 0 0 2.23858 0 5V27C0 29.7614 2.23858 32 5 32H27C29.7614 32 32 29.7614 32 27V5C32 2.23858 29.7614 0 27 0Z" fill="black"/>
<path d="M23.582 7.57754C23.582 8.52636 23.2052 9.43632 22.5342 10.1072C21.8634 10.7782 20.9534 11.1551 20.0046 11.1551C19.0557 11.1551 18.1458 10.7782 17.4748 10.1072C16.8039 9.43632 16.427 8.52636 16.427 7.57754C16.427 6.62872 16.8039 5.71876 17.4748 5.04784C18.1458 4.37692 19.0557 4 20.0046 4C20.9534 4 21.8634 4.37692 22.5342 5.04784C23.2052 5.71876 23.582 6.62872 23.582 7.57754Z" fill="url(#paint0_linear_1554_134)"/>
<path d="M15.997 12.8277C14.745 12.8259 13.5122 13.1354 12.4094 13.7281V5.14771H8.40991V20.4117C8.40951 21.9123 8.85405 23.3791 9.68735 24.6269C10.5206 25.8747 11.7052 26.8473 13.0913 27.4217C14.4774 27.9963 16.0027 28.1469 17.4744 27.8545C18.9461 27.5621 20.298 26.8399 21.3592 25.7791C22.4204 24.7183 23.1432 23.3667 23.4362 21.8951C23.7292 20.4235 23.5792 18.8982 23.0052 17.5119C22.4312 16.1256 21.459 14.9406 20.2116 14.1068C18.9642 13.273 17.4975 12.8279 15.997 12.8277ZM15.997 24.0629C15.275 24.0629 14.5692 23.8489 13.9689 23.4477C13.3685 23.0467 12.9006 22.4765 12.6243 21.8095C12.3479 21.1425 12.2756 20.4083 12.4164 19.7003C12.5573 18.9921 12.9049 18.3416 13.4154 17.831C13.9259 17.3205 14.5764 16.9727 15.2845 16.8318C15.9926 16.6909 16.7267 16.7631 17.3938 17.0393C18.0609 17.3156 18.6311 17.7834 19.0323 18.3837C19.4335 18.984 19.6477 19.6898 19.6478 20.4117C19.648 20.8913 19.5537 21.3661 19.3703 21.8091C19.1869 22.2521 18.918 22.6547 18.579 22.9939C18.2399 23.3329 17.8374 23.6019 17.3944 23.7853C16.9514 23.9687 16.4765 24.0631 15.997 24.0629Z" fill="white"/>
<defs>
<linearGradient id="paint0_linear_1554_134" x1="17.4738" y1="10.1083" x2="22.5352" y2="5.04682" gradientUnits="userSpaceOnUse">
<stop stop-color="#E52F08"/>
<stop offset="1" stop-color="#E94F96"/>
</linearGradient>
</defs>
</svg>
