<svg width="512" height="398" viewBox="0 0 512 398" fill="none" xmlns="http://www.w3.org/2000/svg">
<g clip-path="url(#clip0_4003_10)">
<path d="M115.283 161.556C112.793 162.186 103.03 165.459 100.54 166.089C97.6822 166.816 95.1753 168.533 93.4665 170.936C91.7576 173.339 90.9579 176.271 91.21 179.209C91.2117 179.283 91.2184 179.356 91.23 179.429C91.5003 182.607 92.9817 185.56 95.3679 187.676C97.7541 189.792 100.862 190.91 104.05 190.799C115.3 190.409 126.553 190.016 137.81 189.619C152.866 182.629 160.035 176.914 159.316 172.474C158.369 166.615 143.691 162.975 115.283 161.556Z" fill="#FFD08C"/>
<path d="M156.734 176.367L128.8 195.719C126.089 197.552 124.136 200.307 123.305 203.472C122.473 206.636 122.82 209.996 124.279 212.924C125.739 215.853 128.214 218.151 131.241 219.392C134.269 220.633 137.645 220.731 140.74 219.669L188.87 203.199C189.612 200.299 190.756 193.929 187.66 187.786C182.95 178.443 170.306 173.334 156.734 176.366V176.367Z" fill="#FFC570"/>
<path d="M474.5 186.259H193.08C176.512 186.259 163.08 199.69 163.08 216.259V360.199C163.08 376.767 176.512 390.199 193.08 390.199H474.5C491.069 390.199 504.5 376.767 504.5 360.199V216.259C504.5 199.69 491.069 186.259 474.5 186.259Z" fill="#79ED97"/>
<path d="M474.5 186.26H459.5C467.456 186.26 475.087 189.42 480.713 195.047C486.339 200.673 489.5 208.303 489.5 216.26V360.2C489.5 368.156 486.339 375.787 480.713 381.413C475.087 387.039 467.456 390.2 459.5 390.2H474.5C482.456 390.2 490.087 387.039 495.713 381.413C501.339 375.787 504.5 368.156 504.5 360.2V216.26C504.5 208.303 501.339 200.673 495.713 195.047C490.087 189.42 482.456 186.26 474.5 186.26Z" fill="#63EA86"/>
<path d="M193.08 338.2V238.26C198.915 238.26 204.511 235.942 208.636 231.816C212.762 227.69 215.08 222.095 215.08 216.26H452.5C452.5 222.095 454.818 227.69 458.944 231.816C463.07 235.942 468.665 238.26 474.5 238.26V338.2C468.665 338.2 463.07 340.518 458.944 344.643C454.818 348.769 452.5 354.365 452.5 360.2H215.08C215.08 354.365 212.762 348.769 208.636 344.643C204.511 340.518 198.915 338.2 193.08 338.2Z" fill="white"/>
<path d="M452.5 216.26H437.5C437.5 222.095 439.818 227.69 443.944 231.816C448.069 235.942 453.665 238.26 459.5 238.26V338.2C453.665 338.2 448.069 340.518 443.944 344.643C439.818 348.769 437.5 354.365 437.5 360.2H452.5C452.5 354.365 454.818 348.769 458.944 344.643C463.069 340.518 468.665 338.2 474.5 338.2V238.26C468.665 238.26 463.069 235.942 458.944 231.816C454.818 227.69 452.5 222.095 452.5 216.26Z" fill="#EEEEEE"/>
<path d="M259.43 195.54L247.64 186.26L190.64 141.38C188.9 140.015 187.494 138.272 186.529 136.283C185.564 134.294 185.065 132.111 185.07 129.9C185.07 129.369 185.1 128.838 185.16 128.31C185.18 128.09 185.21 127.86 185.25 127.64C185.514 125.932 186.084 124.286 186.93 122.78C187.908 121.034 189.233 119.508 190.825 118.296C192.417 117.084 194.241 116.212 196.183 115.734C198.126 115.255 200.146 115.181 202.119 115.516C204.091 115.851 205.974 116.587 207.65 117.68L214.09 121.88L230.72 132.72L239.67 138.57L245.54 186.26H278.84L272.3 121.73C271.421 113.423 268.96 105.361 265.05 97.9798L261.78 91.8298C261.72 91.7098 261.66 91.5998 261.6 91.4798L261.54 91.3598C252.4 73.2798 243.257 55.1965 234.11 37.1098C232.527 33.9748 230.137 31.3187 227.185 29.415C224.234 27.5114 220.829 26.4291 217.32 26.2798C178.27 28.9298 139.223 31.5765 100.18 34.2198L86.56 35.1498C85.77 35.1998 84.97 35.2598 84.18 35.3098C81.46 35.2298 78.6767 35.0998 75.83 34.9198C73.62 34.7798 61.97 33.5498 59.84 33.3598L35.373 122.845L64.86 142.78C67.8919 144.874 71.2002 146.537 74.69 147.72L123.01 164.19L153.77 174.68L165.24 181.21L178.44 188.73L200.27 201.16L203.87 203.2L204.03 203.29L227.1 216.43L227.52 216.67L240.31 223.95C242.651 225.284 245.272 226.049 247.963 226.183C250.654 226.317 253.339 225.816 255.8 224.721C258.262 223.626 260.432 221.968 262.134 219.879C263.836 217.791 265.024 215.332 265.6 212.7C266.363 209.16 265.996 205.47 264.55 202.15C263.418 199.556 261.659 197.284 259.43 195.54Z" fill="#F2CC97"/>
<path d="M190.64 141.38C188.9 140.015 187.494 138.272 186.529 136.283C185.564 134.294 185.065 132.111 185.07 129.9C185.07 129.369 185.1 128.838 185.16 128.31C185.18 128.09 185.21 127.86 185.25 127.64C185.581 125.531 186.371 123.52 187.564 121.75C188.756 119.979 190.322 118.491 192.152 117.392C190.478 116.39 188.619 115.735 186.687 115.464C184.755 115.193 182.788 115.312 180.903 115.814C179.018 116.316 177.252 117.192 175.711 118.388C174.17 119.585 172.884 121.078 171.93 122.78C171.084 124.286 170.515 125.932 170.25 127.64C170.21 127.86 170.18 128.09 170.16 128.31C170.1 128.838 170.07 129.369 170.07 129.9C170.065 132.111 170.564 134.294 171.529 136.283C172.494 138.272 173.9 140.015 175.64 141.38L232.64 186.26H247.64L190.64 141.38ZM219.11 37.1098C228.25 55.1898 237.393 73.2731 246.54 91.3598L246.6 91.4798C246.66 91.5998 246.72 91.7098 246.78 91.8298L250.05 97.9798C253.96 105.361 256.421 113.423 257.3 121.73L263.84 186.26H278.84L272.3 121.73C271.421 113.423 268.96 105.361 265.05 97.9798L261.78 91.8298C261.72 91.7098 261.66 91.5998 261.6 91.4798L261.54 91.3598C252.4 73.2798 243.257 55.1965 234.11 37.1098C232.527 33.9748 230.137 31.3187 227.186 29.415C224.234 27.5114 220.829 26.4291 217.32 26.2798L206.767 26.9948C209.416 27.7277 211.882 29.0061 214.007 30.748C216.133 32.4899 217.871 34.6568 219.11 37.1098ZM60.83 34.9198C63.68 35.0998 66.4633 35.2298 69.18 35.3098C69.97 35.2598 70.77 35.1998 71.56 35.1498L75.397 34.8878C72.42 34.6528 61.86 33.5408 59.841 33.3608L59.445 34.8068C60.045 34.8608 60.53 34.9008 60.83 34.9198Z" fill="#FFC570"/>
<path d="M259.43 195.54L247.64 186.26H232.64L244.43 195.54C246.659 197.284 248.418 199.556 249.55 202.15C250.837 205.083 251.277 208.319 250.819 211.49C250.362 214.661 249.025 217.64 246.96 220.09C245.403 221.933 243.474 223.426 241.298 224.47C243.635 225.608 246.201 226.201 248.801 226.203C251.4 226.206 253.967 225.619 256.307 224.486C258.647 223.352 260.699 221.703 262.309 219.661C263.918 217.62 265.044 215.239 265.6 212.7C266.363 209.16 265.996 205.47 264.55 202.15C263.418 199.556 261.659 197.284 259.43 195.54Z" fill="#FFC570"/>
<path d="M0 7.7998L56.234 20.0078C58.5618 20.5356 60.5845 21.9665 61.8573 23.9857C63.1301 26.0049 63.5487 28.447 63.021 30.7748L38.747 137.861C38.2192 140.189 36.7883 142.211 34.7691 143.484C32.7499 144.757 30.3078 145.176 27.98 144.648L0 140.006" fill="#008BE2"/>
<path d="M56.234 20.0078L0 7.80078V19.3378L41.234 28.2898C43.5618 28.8176 45.5845 30.2485 46.8573 32.2677C48.1301 34.2869 48.5487 36.729 48.021 39.0568L24.227 144.026L27.98 144.648C30.3078 145.175 32.7499 144.757 34.7691 143.484C36.7883 142.211 38.2192 140.189 38.747 137.861L63.021 30.7748C63.5487 28.447 63.1301 26.0049 61.8573 23.9857C60.5845 21.9665 58.5618 20.5356 56.234 20.0078Z" fill="#009AFB"/>
<path d="M304.683 271.776C304.683 273.765 305.473 275.673 306.88 277.079C308.286 278.486 310.194 279.276 312.183 279.276H334.243C332.878 281.861 330.835 284.024 328.332 285.535C325.83 287.045 322.963 287.845 320.04 287.848H312.182C310.713 287.848 309.277 288.279 308.051 289.088C306.826 289.897 305.864 291.048 305.287 292.399C304.709 293.749 304.541 295.239 304.803 296.684C305.064 298.129 305.745 299.466 306.759 300.528L338.187 333.433C338.867 334.145 339.681 334.716 340.582 335.114C341.483 335.512 342.454 335.728 343.438 335.751C344.423 335.774 345.403 335.602 346.321 335.246C347.239 334.89 348.079 334.357 348.791 333.677C349.503 332.997 350.075 332.183 350.472 331.282C350.87 330.381 351.086 329.41 351.109 328.425C351.132 327.441 350.96 326.461 350.604 325.543C350.249 324.624 349.715 323.785 349.035 323.073L328.578 301.655C333.824 300.142 338.58 297.279 342.373 293.352C346.165 289.425 348.86 284.571 350.188 279.276H355.398C357.387 279.276 359.295 278.486 360.701 277.079C362.108 275.673 362.898 273.765 362.898 271.776C362.898 269.787 362.108 267.879 360.701 266.472C359.295 265.066 357.387 264.276 355.398 264.276H350.191C349.44 261.256 348.237 258.366 346.623 255.706H355.397C357.386 255.706 359.294 254.916 360.7 253.509C362.107 252.103 362.897 250.195 362.897 248.206C362.897 246.217 362.107 244.309 360.7 242.902C359.294 241.496 357.386 240.706 355.397 240.706H312.183C310.194 240.706 308.286 241.496 306.88 242.902C305.473 244.309 304.683 246.217 304.683 248.206C304.683 250.195 305.473 252.103 306.88 253.509C308.286 254.916 310.194 255.706 312.183 255.706H320.04C322.963 255.709 325.829 256.508 328.332 258.018C330.834 259.528 332.878 261.691 334.243 264.276H312.183C310.194 264.276 308.286 265.066 306.88 266.472C305.473 267.879 304.683 269.787 304.683 271.776ZM474.5 178.76H285.618L279.754 120.943C278.787 111.676 276.042 102.683 271.669 94.4558L268.403 88.3108L268.281 88.0708L268.233 87.9758L240.808 33.7338C238.622 29.4099 235.324 25.7461 231.253 23.1191C227.183 20.4921 222.485 18.9968 217.645 18.7868C217.367 18.7755 217.089 18.7788 216.812 18.7968L205.085 19.5928C169.945 21.9775 134.806 24.3588 99.669 26.7368L84.04 27.8008C81.4595 27.7196 78.8805 27.5973 76.304 27.4338C74.471 27.3178 72.601 27.1738 70.637 27.0028C70.2732 23.6022 68.8595 20.3992 66.5922 17.8388C64.3249 15.2783 61.3166 13.4874 57.985 12.7148L9.32198 0.524791C7.39965 0.0619641 5.37232 0.376971 3.68107 1.40128C1.98982 2.42559 0.771475 4.07633 0.291113 5.99435C-0.189249 7.91237 0.107233 9.94249 1.11606 11.643C2.12488 13.3436 3.76442 14.5769 5.67798 15.0748L54.41 27.2838L54.575 27.3238C54.9625 27.4123 55.2991 27.6508 55.5109 27.9871C55.7227 28.3235 55.7925 28.7301 55.705 29.1178L31.433 136.203C31.3895 136.395 31.3087 136.576 31.195 136.737C31.0814 136.898 30.9372 137.034 30.7706 137.139C30.6041 137.244 30.4186 137.315 30.2246 137.349C30.0306 137.382 29.8319 137.376 29.64 137.333L9.15998 132.691C7.22005 132.251 5.18485 132.6 3.50208 133.66C1.81932 134.721 0.626839 136.407 0.186977 138.347C-0.252884 140.287 0.0959023 142.322 1.15661 144.005C2.21731 145.687 3.90305 146.88 5.84298 147.32L26.324 151.962C27.5311 152.236 28.7651 152.375 30.003 152.376C33.7396 152.366 37.3624 151.089 40.2794 148.753C43.1965 146.418 45.2353 143.163 46.063 139.519L46.183 138.988L60.601 148.952C64.2 151.439 68.1277 153.413 72.271 154.818L92.361 161.667C89.4614 163.637 87.1349 166.34 85.618 169.501C84.101 172.662 83.4475 176.168 83.724 179.663C83.734 179.859 83.751 180.058 83.776 180.26C84.2407 185.197 86.5308 189.783 90.1984 193.121C93.866 196.459 98.647 198.308 103.606 198.307C103.839 198.307 104.076 198.303 104.31 198.294C108.689 198.142 113.069 197.989 117.45 197.835C115.66 201.564 115.012 205.738 115.587 209.834C116.162 213.931 117.936 217.765 120.684 220.857C123.432 223.948 127.032 226.158 131.033 227.21C135.033 228.261 139.255 228.107 143.168 226.766L155.581 222.521V360.2C155.592 370.142 159.547 379.674 166.577 386.704C173.607 393.734 183.139 397.689 193.081 397.7H474.5C484.442 397.689 493.974 393.734 501.004 386.704C508.034 379.674 511.989 370.142 512 360.2V216.26C511.989 206.318 508.034 196.786 501.004 189.756C493.974 182.725 484.442 178.771 474.5 178.76ZM103.789 183.304C102.526 183.344 101.295 182.9 100.35 182.061C99.4041 181.223 98.8152 180.055 98.704 178.796C98.6989 178.738 98.6929 178.68 98.686 178.623C98.686 178.606 98.684 178.588 98.682 178.57C98.5778 177.404 98.8928 176.238 99.5704 175.284C100.248 174.329 101.244 173.647 102.379 173.36C103.746 173.015 106.241 172.227 110.189 170.97C111.808 170.453 113.667 169.861 115.099 169.42L140.899 178.215L135.133 182.209C124.681 182.579 114.233 182.944 103.789 183.304ZM156.955 206.198L138.295 212.58C137.507 212.848 136.672 212.949 135.842 212.877C135.013 212.805 134.208 212.561 133.478 212.16C132.748 211.759 132.11 211.211 131.604 210.55C131.097 209.889 130.735 209.13 130.538 208.321C130.253 207.118 130.343 205.857 130.796 204.706C131.249 203.556 132.043 202.572 133.071 201.886L140.934 196.438C141.72 196.074 142.438 195.577 143.054 194.969L157.126 185.22L166.04 190.296C161.739 194.76 158.616 200.225 156.955 206.198ZM157.48 168.162C157.069 167.928 156.637 167.734 156.19 167.582L117.856 154.512L117.747 154.475L77.092 140.615C74.263 139.656 71.5813 138.308 69.124 136.61L51.744 124.6C51.1087 124.161 50.4094 123.823 49.671 123.598L68.206 41.8278C68.356 41.8498 68.502 41.8768 68.654 41.8898C73.7454 42.347 78.8494 42.6528 83.959 42.8068C84.187 42.8138 84.424 42.8098 84.656 42.7948L100.686 41.7028C135.827 39.3268 170.965 36.9455 206.1 34.5588L217.362 33.7938C219.474 33.9478 221.51 34.6459 223.272 35.82C225.034 36.994 226.462 38.6042 227.417 40.4938L254.843 94.7348L255.083 95.2058L255.157 95.3498L258.42 101.49C261.887 108.011 264.064 115.139 264.833 122.485L270.54 178.76H252.178L247.113 137.653C246.98 136.569 246.611 135.528 246.033 134.601C245.456 133.675 244.682 132.885 243.768 132.289L234.958 126.539C234.908 126.507 234.865 126.469 234.815 126.437L211.743 111.395C209.207 109.742 206.358 108.629 203.374 108.122C200.389 107.616 197.333 107.728 194.393 108.451C191.454 109.174 188.694 110.493 186.285 112.326C183.877 114.16 181.87 116.468 180.39 119.109C179.119 121.37 178.259 123.84 177.852 126.402C177.787 126.779 177.735 127.169 177.699 127.547C177.613 128.328 177.57 129.114 177.57 129.9C177.555 133.247 178.307 136.553 179.769 139.565C181.23 142.576 183.362 145.213 186 147.273L242.864 192.043L242.884 192.059L254.789 201.432C256.05 202.412 257.045 203.694 257.681 205.16C258.49 207.027 258.697 209.1 258.274 211.09C258.111 211.832 257.861 212.552 257.529 213.236C257.514 213.272 257.494 213.306 257.479 213.343C256.677 214.958 255.439 216.315 253.905 217.262C252.371 218.209 250.602 218.707 248.799 218.7C247.122 218.704 245.473 218.267 244.019 217.432L157.48 168.162ZM267.708 224.907C268.023 224.531 268.324 224.149 268.613 223.76H445.966C447.305 228.81 449.956 233.415 453.65 237.109C457.344 240.803 461.95 243.454 467 244.793V331.665C461.95 333.004 457.344 335.655 453.65 339.349C449.955 343.044 447.305 347.65 445.966 352.7H221.614C220.275 347.65 217.624 343.044 213.93 339.35C210.236 335.656 205.63 333.004 200.58 331.666V244.793C205.63 243.454 210.236 240.803 213.93 237.109C217.624 233.415 220.275 228.809 221.614 223.759H224.818L236.6 230.467C241.618 233.322 247.477 234.329 253.16 233.313C258.842 232.297 263.99 229.323 267.708 224.907ZM235.65 167.272L195.26 135.472C194.416 134.81 193.734 133.964 193.268 132.998C192.802 132.032 192.563 130.972 192.57 129.9C192.57 129.653 192.583 129.407 192.611 129.162C192.619 129.099 192.623 129.048 192.629 128.985L192.661 128.793C192.788 127.967 193.064 127.171 193.474 126.443C193.95 125.594 194.595 124.852 195.369 124.262C196.143 123.673 197.03 123.248 197.975 123.016C198.92 122.783 199.903 122.747 200.862 122.909C201.822 123.072 202.737 123.43 203.553 123.961L209.963 128.141L209.991 128.161L232.652 142.946L235.65 167.272ZM497 360.2C496.993 366.165 494.62 371.884 490.402 376.102C486.184 380.32 480.465 382.693 474.5 382.7H193.08C187.115 382.693 181.396 380.32 177.178 376.102C172.96 371.884 170.587 366.165 170.58 360.2V216.26C170.586 212.726 171.421 209.244 173.02 206.093C174.619 202.942 176.936 200.211 179.784 198.12L207.893 214.123C207.686 214.816 207.581 215.535 207.58 216.259C207.575 220.103 206.046 223.789 203.328 226.507C200.61 229.225 196.924 230.754 193.08 230.759C191.091 230.759 189.183 231.549 187.777 232.955C186.37 234.362 185.58 236.27 185.58 238.259V338.199C185.58 340.188 186.37 342.096 187.777 343.502C189.183 344.909 191.091 345.699 193.08 345.699C196.924 345.703 200.61 347.232 203.328 349.951C206.046 352.669 207.575 356.355 207.58 360.199C207.58 362.188 208.37 364.096 209.777 365.502C211.183 366.909 213.091 367.699 215.08 367.699H452.5C454.489 367.699 456.397 366.909 457.803 365.502C459.21 364.096 460 362.188 460 360.199C460.004 356.355 461.534 352.669 464.252 349.951C466.97 347.232 470.656 345.703 474.5 345.699C476.489 345.699 478.397 344.909 479.803 343.502C481.21 342.096 482 340.188 482 338.199V238.259C482 236.27 481.21 234.362 479.803 232.955C478.397 231.549 476.489 230.759 474.5 230.759C470.656 230.754 466.97 229.225 464.252 226.507C461.534 223.789 460.004 220.103 460 216.259C460 214.27 459.21 212.362 457.803 210.955C456.397 209.549 454.489 208.759 452.5 208.759H273.472C273.438 205.455 272.744 202.192 271.429 199.162C270.585 197.228 269.493 195.411 268.181 193.759H474.5C480.465 193.766 486.184 196.138 490.402 200.356C494.62 204.575 496.993 210.294 497 216.259V360.2Z" fill="#272A33"/>
<rect x="276" y="235" width="121" height="107" fill="white"/>
<path d="M344.244 316.264C335.98 316.264 328.74 310.572 324.808 302.104H350.814V290.368H321.786C321.714 289.419 321.675 288.468 321.675 287.497C321.675 286.535 321.713 285.572 321.786 284.635H350.814V272.897H324.809C328.741 264.43 335.98 258.74 344.244 258.74C352.142 258.74 359.58 264.151 363.652 272.855L374 267.793C368.001 254.964 356.6 247 344.244 247C334.955 247 326.285 251.344 319.83 259.242C316.584 263.215 314.104 267.851 312.473 272.897H300V284.635H310.287C310.232 285.578 310.204 286.541 310.204 287.496C310.204 288.462 310.232 289.412 310.287 290.368H300V302.103H312.473C314.104 307.149 316.584 311.78 319.83 315.749C326.285 323.648 334.955 328 344.244 328C356.601 328 368.001 320.037 374 307.208L363.652 302.137C359.579 310.853 352.142 316.264 344.244 316.264Z" fill="#272A33"/>
</g>
<defs>
<clipPath id="clip0_4003_10">
<rect width="512" height="398" fill="white"/>
</clipPath>
</defs>
</svg>
