<svg width="47" height="32" viewBox="0 0 47 32" fill="none" xmlns="http://www.w3.org/2000/svg">
<path d="M42.057 16.5425H37.7837C37.6711 16.543 37.5595 16.5213 37.4553 16.4786C37.351 16.4359 37.2563 16.373 37.1764 16.2936C37.0965 16.2142 37.033 16.1199 36.9896 16.0159C36.9463 15.912 36.9238 15.8005 36.9236 15.6879C36.9236 15.2126 37.3104 14.7945 37.7856 14.7945H44.2876V11.5767H37.7856C36.6929 11.5796 35.6459 12.0155 34.8739 12.7888C34.102 13.5621 33.668 14.6099 33.667 15.7026C33.668 16.7953 34.102 17.8431 34.8739 18.6164C35.6459 19.3898 36.6929 19.8256 37.7856 19.8285H41.9999C42.4752 19.8285 42.8601 20.208 42.8601 20.6832C42.8601 21.1584 42.4733 21.5084 41.9999 21.5084H32.9615C32.1953 22.9783 31.4493 24.2363 29.9352 24.8662H42.057C44.2895 24.8331 46.1148 22.9396 46.1148 20.6887C46.1148 18.4379 44.2895 16.5757 42.057 16.5425Z" fill="#5F6360"/>
<path d="M25.6803 11.5767C22.0591 11.5767 19.1101 14.5514 19.1101 18.2076V32.0001H22.3888V24.8681H25.6729C29.2942 24.8681 32.2321 21.8528 32.2321 18.1966C32.2321 14.5422 29.3016 11.5785 25.6803 11.5785V11.5767ZM25.6803 21.5084H22.3869V18.1947C22.3869 16.3436 23.8568 14.8387 25.6803 14.8387C27.502 14.8387 28.9847 16.3436 28.9847 18.1947C28.9847 20.0459 27.502 21.5102 25.6803 21.5102V21.5084Z" fill="#5F6360"/>
<path d="M8.73079 24.8662C5.63081 24.8662 3.02446 22.6503 2.32084 19.7567C2.32084 19.7567 2.11639 18.8007 2.11639 18.1707C2.11639 17.5408 2.30979 16.5738 2.30979 16.5738C2.6625 15.1399 3.48476 13.8652 4.64567 12.9526C5.80658 12.04 7.23941 11.542 8.71605 11.5379C10.4711 11.5404 12.1537 12.2378 13.3957 13.4778C14.6377 14.7177 15.338 16.3992 15.3433 18.1542V19.7603H5.67133C6.24233 20.8784 7.39723 21.5102 8.72895 21.5102H17.4229L17.434 12.0426C17.434 10.6317 16.2827 9.47864 14.8737 9.47864H2.55845C1.15121 9.47864 0 10.5967 0 12.0095V24.3633C0 25.7743 1.15121 26.9642 2.55845 26.9642H14.8792C16.1409 26.9642 17.1945 26.0561 17.399 24.8662H8.73079Z" fill="#A41760"/>
<path d="M8.71607 14.6784C7.38988 14.6784 6.23682 15.4925 5.66398 16.5425H11.77C11.199 15.4925 10.0441 14.6784 8.71607 14.6784ZM14.2971 5.45951C14.2971 2.44425 11.7976 0 8.71607 0C5.68424 0 3.21789 2.36505 3.13684 5.31031V6.98831C3.13684 7.1854 3.29709 7.37881 3.49602 7.37881H5.54978C5.75239 7.37881 5.92738 7.1854 5.92738 6.98831V5.45951C5.92738 3.95464 7.17805 2.72975 8.71607 2.72975C10.2559 2.72975 11.5066 3.95464 11.5066 5.45951V6.98831C11.5066 7.1854 11.6687 7.37881 11.8695 7.37881H13.9232C14.1258 7.37881 14.2971 7.1854 14.2971 6.98831V5.45951Z" fill="#A41760"/>
</svg>
