<svg width="52" height="32" viewBox="0 0 52 32" fill="none" xmlns="http://www.w3.org/2000/svg">
<mask id="mask0_1555_147" style="mask-type:luminance" maskUnits="userSpaceOnUse" x="0" y="0" width="52" height="32">
<path d="M0 0H51.2V32H0V0Z" fill="white"/>
</mask>
<g mask="url(#mask0_1555_147)">
<path fill-rule="evenodd" clip-rule="evenodd" d="M0 5.74074C0 2.57274 2.6432 0.00207652 5.9008 0.00207652H45.2992C48.5589 -5.68112e-05 51.2 2.57061 51.2 5.73861V26.257C51.2 29.4271 48.5589 31.9978 45.2992 31.9978H5.9008C2.6432 31.9999 0 29.4293 0 26.2613V5.73861V5.74074ZM2.176 26.2207C2.176 28.2367 3.8464 29.8687 5.90933 29.8687H25.5637V2.13541H5.90933C3.8464 2.13541 2.176 3.76527 2.176 5.77914V26.2207ZM31.5072 26.001H36.3541V18.385H36.4075C37.3248 20.0511 39.1595 20.6719 40.8533 20.6719C45.0283 20.6719 47.2619 17.2266 47.2619 13.0815C47.2619 9.68954 45.1349 5.99888 41.2565 5.99888C39.0485 5.99888 37.0027 6.89061 36.0299 8.85541H35.9765V6.32741H31.5072V26.001ZM42.2528 13.1903C42.2528 15.4239 41.1477 16.9578 39.3173 16.9578C37.7003 16.9578 36.352 15.4218 36.352 13.3759C36.352 11.2767 37.5381 9.71514 39.3173 9.71514C41.2053 9.71514 42.2528 11.3343 42.2528 13.1903Z" fill="#04337B"/>
<path fill-rule="evenodd" clip-rule="evenodd" d="M21.6597 18.5024V6.3211H17.2117V8.8107H17.1584C16.1194 7.1147 14.4234 6.0011 12.3242 6.0011C7.90183 6.0011 5.90717 9.07523 5.90717 13.1798C5.90717 17.2608 8.33917 20.1195 12.241 20.1195C14.208 20.1195 15.8464 19.3771 17.0197 17.76H17.0752V18.5024C17.0752 21.2054 15.5456 22.5024 12.7082 22.5024C10.6602 22.5024 9.40157 22.08 7.90183 21.3632L7.6565 25.1264C9.40809 25.7115 11.2434 26.0069 13.0901 26.0011C18.8245 26.0011 21.6618 24.1728 21.6618 18.5024H21.6597ZM13.7706 16.463C12.2986 16.463 10.9866 15.247 10.9866 13.1008C10.9866 11.2235 11.9424 9.65763 13.7706 9.65763C15.9829 9.65763 16.9109 11.3792 16.9109 12.9152C16.9109 15.0336 15.5178 16.463 13.7706 16.463Z" fill="#EE3525"/>
</g>
</svg>
