<svg width="32" height="32" viewBox="0 0 32 32" fill="none" xmlns="http://www.w3.org/2000/svg">
<path d="M31.2501 16.3642C31.2501 15.1957 31.1464 14.0758 30.9521 13.0007H15.958V19.1654L24.5932 19.1672C24.4279 20.1702 24.0582 21.1285 23.5071 21.9827C22.9559 22.8368 22.2352 23.5686 21.3894 24.1326V28.1321H26.5294C29.5305 25.3468 31.2501 21.2287 31.2501 16.3642Z" fill="#4285F4"/>
<path d="M21.3904 24.1326C19.9604 25.1003 18.1175 25.6663 15.9617 25.6663C11.7978 25.6663 8.26528 22.853 7.00059 19.0608H1.69806V23.1855C4.32457 28.4133 9.72424 32 15.9617 32C20.2733 32 23.8945 30.5784 26.5313 28.1312L21.3913 24.1335L21.3904 24.1326Z" fill="#34A853"/>
<path d="M6.50092 16.0001C6.50092 14.9353 6.67839 13.906 6.99969 12.9383V8.8136H1.6981C0.57786 11.0433 -0.00374433 13.5048 1.81391e-05 16.0001C1.81391e-05 18.5855 0.613681 21.0252 1.6981 23.1866L6.99969 19.0619C6.67012 18.0747 6.50201 17.0408 6.50185 16.0001H6.50092Z" fill="#FABB05"/>
<path d="M15.9617 6.33277C18.3155 6.33277 20.4218 7.14538 22.0853 8.73325L26.6406 4.17048C23.8749 1.58693 20.2677 0 15.9617 0C9.72611 0 4.32457 3.5867 1.69806 8.81358L7.00059 12.9383C8.26528 9.14609 11.7978 6.33277 15.9617 6.33277Z" fill="#E94235"/>
</svg>
