<svg width="36" height="32" viewBox="0 0 36 32" fill="none" xmlns="http://www.w3.org/2000/svg">
<g clip-path="url(#clip0_1554_111)">
<path fill-rule="evenodd" clip-rule="evenodd" d="M0 5.5C0 4.04131 0.579463 2.64236 1.61091 1.61091C2.64236 0.579463 4.04131 0 5.5 0L20 0C24.2435 0 28.3131 1.68571 31.3137 4.68629C34.3143 7.68687 36 11.7565 36 16C36 20.2435 34.3143 24.3131 31.3137 27.3137C28.3131 30.3143 24.2435 32 20 32H5.5C4.04131 32 2.64236 31.4205 1.61091 30.3891C0.579463 29.3576 0 27.9587 0 26.5L0 5.5Z" fill="white"/>
<path d="M8.86601 15.032C9.45639 15.032 10.0226 14.7974 10.44 14.38C10.8575 13.9625 11.092 13.3963 11.092 12.806C11.092 12.2156 10.8575 11.6494 10.44 11.2319C10.0226 10.8145 9.45639 10.58 8.86601 10.58C8.27564 10.58 7.70945 10.8145 7.292 11.2319C6.87454 11.6494 6.64001 12.2156 6.64001 12.806C6.64001 13.3963 6.87454 13.9625 7.292 14.38C7.70945 14.7974 8.27564 15.032 8.86601 15.032ZM10.546 24.008C10.1035 24.0085 9.66519 23.9217 9.25621 23.7527C8.84724 23.5836 8.47561 23.3356 8.1626 23.0228C7.84959 22.71 7.60133 22.3385 7.43204 21.9296C7.26275 21.5207 7.17575 21.0825 7.17601 20.64V18.008C7.17601 17.5597 7.35407 17.1299 7.671 16.8129C7.98794 16.496 8.4178 16.318 8.86601 16.318C9.31423 16.318 9.74409 16.496 10.061 16.8129C10.378 17.1299 10.556 17.5597 10.556 18.008V24.008H10.546Z" fill="black"/>
<path fill-rule="evenodd" clip-rule="evenodd" d="M2 5.5C2 3.568 3.568 2 5.5 2H20C23.713 2 27.274 3.475 29.8995 6.1005C32.525 8.72601 34 12.287 34 16C34 19.713 32.525 23.274 29.8995 25.8995C27.274 28.525 23.713 30 20 30H5.5C4.57174 30 3.6815 29.6313 3.02513 28.9749C2.36875 28.3185 2 27.4283 2 26.5V5.5ZM5.5 4C5.10218 4 4.72064 4.15804 4.43934 4.43934C4.15804 4.72064 4 5.10218 4 5.5V26.5C4 27.328 4.672 28 5.5 28H20C23.1826 28 26.2348 26.7357 28.4853 24.4853C30.7357 22.2348 32 19.1826 32 16C32 12.8174 30.7357 9.76516 28.4853 7.51472C26.2348 5.26428 23.1826 4 20 4H5.5Z" fill="black"/>
<path d="M13.1 9.12V24H19.576C25.456 24 28.004 20.68 28.004 15.982C28.004 11.488 25.454 8 19.576 8H14.22C13.9229 8.00053 13.6382 8.11863 13.4279 8.3285C13.2177 8.53837 13.099 8.82294 13.098 9.12H13.1Z" fill="#E60073"/>
</g>
<defs>
<clipPath id="clip0_1554_111">
<rect width="36" height="32" fill="white"/>
</clipPath>
</defs>
</svg>
