<svg width="32" height="32" viewBox="0 0 32 32" fill="none" xmlns="http://www.w3.org/2000/svg">
<g clip-path="url(#clip0_1555_154)">
<path d="M0 0H32V32H0V0Z" fill="#5B79FF"/>
<path d="M15.988 19.9061C18.098 19.2641 19.883 18.9411 21.343 18.9381C23.758 18.9321 25.782 19.4101 27.416 20.3721V13.3721C25.774 12.5241 23.918 12.0701 21.849 12.0131C19.8214 11.9469 17.8087 12.3803 15.988 13.2751V19.9061Z" fill="white"/>
<path d="M12.56 12.2841L15.164 18.4711V12.5411C16.5198 11.813 17.9957 11.3353 19.521 11.131C21.055 10.925 22.797 10.9581 24.749 11.2311L23.333 7.85405C21.3271 7.71391 19.3167 8.05326 17.468 8.84405C15.61 9.63648 13.938 10.8082 12.559 12.2841H12.56Z" fill="white"/>
<path d="M17.467 7.895L16.443 5.41C16.33 5.13404 16.1637 4.88306 15.9537 4.67138C15.7437 4.4597 15.494 4.29148 15.2189 4.17633C14.9439 4.06117 14.6488 4.00135 14.3506 4.00026C14.0524 3.99917 13.7569 4.05685 13.481 4.17L6.40101 7.088C6.12552 7.20212 5.87521 7.3694 5.66438 7.58029C5.45355 7.79118 5.28634 8.04155 5.17231 8.31708C5.05827 8.59261 4.99963 8.88791 4.99976 9.18611C4.99988 9.48431 5.05875 9.77956 5.17301 10.055L11.987 26.588C12.1 26.864 12.2663 27.1149 12.4763 27.3266C12.6864 27.5383 12.936 27.7065 13.2111 27.8217C13.4862 27.9368 13.7812 27.9967 14.0794 27.9977C14.3776 27.9988 14.6731 27.9411 14.949 27.828L22.029 24.91C22.3046 24.796 22.555 24.6288 22.7659 24.4179C22.9769 24.2071 23.1442 23.9567 23.2583 23.6812C23.3725 23.4056 23.4312 23.1103 23.4311 22.8121C23.4311 22.5138 23.3722 22.2185 23.258 21.943L22.413 19.893C22.1312 19.8755 21.8492 19.8622 21.567 19.853C21.2987 19.8478 21.0303 19.8471 20.762 19.851L21.861 22.518C21.8992 22.6099 21.9189 22.7085 21.9189 22.808C21.919 22.9075 21.8994 23.0061 21.8613 23.098C21.8232 23.19 21.7674 23.2735 21.697 23.3439C21.6266 23.4142 21.543 23.47 21.451 23.508L14.371 26.426C14.1852 26.5019 13.9769 26.501 13.7918 26.4233C13.6067 26.3457 13.46 26.1978 13.384 26.012L6.57001 9.481C6.53181 9.38914 6.51208 9.29066 6.51196 9.19118C6.51184 9.0917 6.53133 8.99317 6.56932 8.90122C6.6073 8.80928 6.66304 8.72572 6.73334 8.65533C6.80364 8.58494 6.88712 8.5291 6.97901 8.491L14.059 5.573C14.1511 5.53524 14.2497 5.516 14.3491 5.51638C14.4486 5.51676 14.5471 5.53674 14.6388 5.57519C14.7306 5.61364 14.8139 5.66981 14.8839 5.74047C14.954 5.81113 15.0094 5.8949 15.047 5.987L16.082 8.497C16.402 8.341 16.647 8.229 16.819 8.16C16.991 8.091 17.207 8.003 17.467 7.895Z" fill="white"/>
</g>
<defs>
<clipPath id="clip0_1555_154">
<rect width="32" height="32" fill="white"/>
</clipPath>
</defs>
</svg>
