<svg width="32" height="32" viewBox="0 0 32 32" fill="none" xmlns="http://www.w3.org/2000/svg">
<g clip-path="url(#clip0_1555_160)">
<path fill-rule="evenodd" clip-rule="evenodd" d="M0 0H32V32H0V0Z" fill="#2E333A"/>
<path fill-rule="evenodd" clip-rule="evenodd" d="M15.842 25.89H24.576C26.571 25.89 26.59 23.766 26.387 22.717C26.277 22.012 25.081 22.017 24.949 22.717V23.535C24.949 23.715 24.8776 23.8877 24.7505 24.0152C24.6234 24.1426 24.451 24.2145 24.271 24.215H7.52499C7.3449 24.2145 7.17235 24.1427 7.04509 24.0152C6.91784 23.8878 6.84625 23.7151 6.84599 23.535V22.717C6.71499 22.017 5.51899 22.012 5.40799 22.717C5.20499 23.766 5.22499 25.89 7.21999 25.89H15.167H15.842ZM22.459 5.54004H23.134C24.081 5.54004 24.854 6.36104 24.854 7.36504V8.23704C24.854 9.47004 23.188 9.46504 23.188 8.24504V7.77004C23.1875 7.62433 23.1293 7.48474 23.0263 7.38171C22.9233 7.27868 22.7837 7.22057 22.638 7.22004H9.14299C8.99728 7.22057 8.85769 7.27868 8.75466 7.38171C8.65163 7.48474 8.59352 7.62433 8.59299 7.77004V8.23704C8.59299 9.46304 7.00499 9.45404 7.00499 8.26304V7.36604C7.00499 6.36204 7.77899 5.54104 8.72499 5.54104H9.66599L22.459 5.54004Z" fill="#3A74C4"/>
<path fill-rule="evenodd" clip-rule="evenodd" d="M24.515 15.564C25.448 16.004 26.092 16.912 26.092 17.954C26.092 19.424 24.812 20.626 23.246 20.626H18.861C18.451 20.626 18.115 20.311 18.115 19.926V11.562C18.115 11.159 18.445 10.828 18.847 10.828H22.501C23.2424 10.8307 23.9527 11.1266 24.4766 11.6513C25.0005 12.1759 25.2954 12.8866 25.297 13.628C25.297 14.378 24.998 15.06 24.515 15.564ZM21.241 14.883C21.0371 14.8838 20.8418 14.9652 20.6977 15.1095C20.5537 15.2537 20.4725 15.4491 20.472 15.653C20.472 16.077 20.818 16.423 21.242 16.423H22.634V16.427H23.185C23.938 16.427 24.553 17.044 24.553 17.797C24.553 18.552 23.938 19.169 23.185 19.169H19.628V12.229H22.433C22.7842 12.2303 23.1206 12.3705 23.3688 12.6189C23.617 12.8673 23.7569 13.2038 23.758 13.555C23.7575 13.8717 23.6441 14.1779 23.438 14.4184C23.232 14.6589 22.9469 14.818 22.634 14.867V14.883H21.241ZM17.418 19.791C17.4395 20.0215 17.3694 20.2511 17.2228 20.4302C17.0762 20.6093 16.865 20.7235 16.6348 20.7479C16.4047 20.7724 16.1741 20.7052 15.9932 20.5609C15.8122 20.4166 15.6954 20.2068 15.668 19.977L14.946 13.326L12.392 19.829L12.389 19.835V19.836L12.382 19.853L12.376 19.867L12.375 19.87L12.369 19.884L12.365 19.892L12.359 19.905L12.356 19.911L12.349 19.924L12.347 19.929C12.3009 20.0162 12.2403 20.095 12.168 20.162L12.166 20.164L12.152 20.176C12.1053 20.2174 12.0544 20.2536 12 20.284L11.996 20.286L11.98 20.296L11.964 20.304L11.957 20.307L11.947 20.312L11.937 20.317L11.927 20.321L11.916 20.326L11.906 20.33L11.898 20.334L11.889 20.337L11.885 20.339L11.877 20.341L11.866 20.346L11.859 20.348C11.7759 20.3772 11.689 20.3938 11.601 20.397H11.537C11.4383 20.3934 11.3409 20.3731 11.249 20.337L11.237 20.332L11.234 20.331L11.222 20.326L11.211 20.321L11.201 20.317L11.191 20.312L11.181 20.307L11.175 20.304L11.159 20.296L11.157 20.295L11.144 20.287L11.136 20.283C11.0881 20.256 11.0429 20.2245 11.001 20.189L10.998 20.187L10.968 20.161C10.9605 20.1538 10.9532 20.1465 10.946 20.139L10.925 20.117C10.9161 20.1072 10.9074 20.0972 10.899 20.087L10.896 20.084C10.8609 20.042 10.8297 19.9968 10.803 19.949L10.798 19.941L10.791 19.927L10.79 19.926L10.782 19.91L10.779 19.904L10.774 19.894L10.769 19.884L10.765 19.874L10.76 19.863L10.755 19.851L10.754 19.848L10.749 19.836L8.19199 13.326L7.46999 19.977C7.45916 20.093 7.4254 20.2057 7.37066 20.3086C7.31593 20.4114 7.24132 20.5024 7.15116 20.5762C7.061 20.65 6.95709 20.7051 6.84544 20.7384C6.7338 20.7717 6.61665 20.7826 6.5008 20.7702C6.38494 20.7579 6.27269 20.7227 6.17054 20.6667C6.06839 20.6107 5.97839 20.5349 5.90576 20.4438C5.83312 20.3527 5.7793 20.2481 5.74741 20.136C5.71552 20.024 5.7062 19.9067 5.71999 19.791L6.56999 11.949V11.947L6.57099 11.944C6.60715 11.6199 6.75042 11.3171 6.97811 11.0836C7.2058 10.8501 7.50489 10.6993 7.82799 10.655H7.82999L7.87799 10.65C7.95299 10.642 8.02699 10.64 8.09999 10.643H8.10299C8.38428 10.6545 8.65608 10.7479 8.88505 10.9117C9.11403 11.0755 9.29021 11.3025 9.39199 11.565L11.569 17.106L13.745 11.565C13.8468 11.3024 14.0232 11.0752 14.2523 10.9114C14.4815 10.7476 14.7535 10.6543 15.035 10.643H15.038C15.1282 10.6387 15.2186 10.6428 15.308 10.655H15.31C15.6334 10.6983 15.9329 10.8486 16.1607 11.0821C16.3886 11.3156 16.5316 11.6187 16.567 11.943V11.949L17.418 19.791Z" fill="white"/>
</g>
<defs>
<clipPath id="clip0_1555_160">
<rect width="32" height="32" fill="white"/>
</clipPath>
</defs>
</svg>
