<svg width="48" height="32" viewBox="0 0 48 32" fill="none" xmlns="http://www.w3.org/2000/svg">
<path fill-rule="evenodd" clip-rule="evenodd" d="M28.21 26.65L27.922 27.976H15.82L16.388 25.356C16.706 23.886 17.256 22.924 18.046 22.468C18.834 22.014 20.546 21.662 23.186 21.418C25.294 21.228 26.602 20.97 27.1 20.642C27.604 20.316 28 19.472 28.296 18.106C28.556 16.906 28.484 16.13 28.08 15.774C27.676 15.418 26.668 15.238 25.05 15.238C23.03 15.238 21.728 15.382 21.136 15.672C20.542 15.96 20.126 16.656 19.89 17.758L19.688 18.798H17.83L18 18.074C18.36 16.408 19.024 15.298 19.994 14.744C20.964 14.19 22.726 13.912 25.278 13.912C27.54 13.912 29.002 14.212 29.652 14.808C30.3 15.408 30.438 16.574 30.062 18.308C29.702 19.974 29.102 21.088 28.254 21.648C27.404 22.208 25.744 22.588 23.274 22.786C21.102 22.962 19.774 23.206 19.298 23.518C18.818 23.832 18.422 24.718 18.106 26.182L18.006 26.65H28.21ZM44.13 14.08L42.098 23.462H44.612L44.324 24.788H41.814L41.114 28H39.224L39.918 24.788H30.518L30.914 22.942L41.2 14.08H44.13ZM40.204 23.462L42.014 15.09H41.978L32.36 23.46H40.2L40.204 23.462ZM11.338 8.8L9.47 7.714C11.6928 6.78035 13.9876 6.02855 16.332 5.466L16.676 6.948C14.847 7.41044 13.0617 8.03077 11.34 8.802L11.338 8.8ZM32.534 7.986C30.7732 7.20457 28.9173 6.65789 27.014 6.36L28.52 4H28.56C32.922 4.018 36.39 4.5 39.12 5.17L32.532 7.99L32.534 7.986ZM7.774 8.474L9.682 9.61C8.812 10.05 7.922 10.536 7.018 11.078H3.31C3.31 11.078 4.842 9.882 7.77 8.474H7.774ZM26.28 4.08L25.386 6.174C22.9069 5.95939 20.4099 6.10354 17.972 6.602L17.718 5.104C20.5371 4.52032 23.4008 4.17775 26.278 4.08H26.28ZM42.6 6.196C46.55 7.72 48 9.454 48 9.454H35.224C35.224 9.454 34.804 9.134 34.008 8.686L42.602 6.196H42.6Z" fill="#99A0A6"/>
<path fill-rule="evenodd" clip-rule="evenodd" d="M0 27.948L3.058 13.91H10.938C12.878 13.91 14.138 14.216 14.71 14.826C15.282 15.436 15.388 16.578 15.024 18.25C14.674 19.856 14.068 20.95 13.204 21.53C12.344 22.114 10.898 22.404 8.874 22.404L8.114 22.414H3.15L1.94 27.948H0ZM3.438 21.08H8.04C9.964 21.08 11.234 20.92 11.846 20.596C12.46 20.274 12.892 19.534 13.142 18.376C13.438 17.016 13.442 16.156 13.156 15.796C12.868 15.436 12.04 15.256 10.668 15.256L9.928 15.248H4.708L3.438 21.08Z" fill="#D13239"/>
</svg>
