<svg width="32" height="32" viewBox="0 0 32 32" fill="none" xmlns="http://www.w3.org/2000/svg">
<g clip-path="url(#clip0_1554_117)">
<path d="M25.802 7.676C26.19 7.804 26.55 7.956 26.882 8.13C27.272 5.642 26.878 3.946 25.532 2.412C24.048 0.724 21.372 4.6263e-07 17.946 4.6263e-07H7.99797C7.6593 -0.00027279 7.33168 0.12051 7.07423 0.340554C6.81677 0.560599 6.64644 0.865414 6.59397 1.2L2.44997 27.464C2.36997 27.984 2.76997 28.452 3.29397 28.452H9.43397L10.974 18.686L10.928 18.976C11.038 18.286 11.628 17.776 12.328 17.776H15.248C20.978 17.776 25.468 15.448 26.778 8.716C26.818 8.516 26.852 8.32 26.882 8.13C26.5351 7.94917 26.1739 7.79732 25.802 7.676Z" fill="#253B80"/>
<path d="M25.508 7.58406C25.0891 7.46254 24.6629 7.36768 24.232 7.30006C23.381 7.16917 22.5209 7.1063 21.66 7.11206H13.864C13.5668 7.1106 13.2791 7.21608 13.0533 7.40922C12.8274 7.60236 12.6786 7.87028 12.634 8.16406L10.976 18.6681L10.928 18.9741C11.038 18.2841 11.628 17.7741 12.328 17.7741H15.248C20.98 17.7741 25.468 15.4461 26.778 8.71406C26.818 8.51406 26.85 8.32006 26.88 8.13006C26.4433 7.8995 25.9834 7.71581 25.508 7.58206V7.58406Z" fill="#222D65"/>
<path d="M26.88 8.13C26.85 8.32522 26.8166 8.51991 26.78 8.714C25.466 15.448 20.98 17.774 15.248 17.774H12.328C11.9899 17.7743 11.663 17.8953 11.4063 18.1154C11.1496 18.3354 10.98 18.6399 10.928 18.974L9.43402 28.45L9.01202 31.136C8.99495 31.2425 9.0012 31.3515 9.03032 31.4554C9.05945 31.5593 9.11077 31.6556 9.18074 31.7378C9.2507 31.8199 9.33765 31.8859 9.43559 31.9312C9.53353 31.9764 9.64012 31.9999 9.74802 32H14.924C15.2204 31.9999 15.5071 31.8941 15.7325 31.7017C15.9579 31.5092 16.1074 31.2427 16.154 30.95L16.206 30.688L17.18 24.502L17.242 24.162C17.2883 23.8691 17.4376 23.6024 17.6631 23.4099C17.8886 23.2173 18.1755 23.1117 18.472 23.112H19.246C24.262 23.112 28.186 21.076 29.334 15.184C29.814 12.724 29.566 10.668 28.298 9.224C27.8958 8.77615 27.4153 8.40542 26.88 8.13Z" fill="#179BD7"/>
</g>
<defs>
<clipPath id="clip0_1554_117">
<rect width="32" height="32" fill="white"/>
</clipPath>
</defs>
</svg>
