<svg width="32" height="32" viewBox="0 0 32 32" fill="none" xmlns="http://www.w3.org/2000/svg">
<g clip-path="url(#clip0_1555_205)">
<path d="M4.09404 0.00609637L3.98438 0.0217634V2.58072C3.98438 4.45555 4.00004 5.13445 4.04704 5.13968C4.07838 5.13968 7.51469 5.1449 11.6769 5.15012C17.7975 5.16056 19.3016 5.17623 19.5104 5.23368C20.534 5.50524 21.2286 5.90736 21.8396 6.59149C22.6439 7.48451 22.9938 8.59688 22.8528 9.83458C22.8319 10.0226 22.8058 10.1897 22.7901 10.2158C22.7796 10.2367 22.7535 10.3203 22.7431 10.3986C22.7274 10.4769 22.6491 10.6963 22.5707 10.8895C22.153 11.8765 21.3122 12.7069 20.3095 13.109C19.5836 13.4067 19.6097 13.4014 16.1681 13.4119C12.8049 13.4223 12.7788 13.4223 12.7214 13.6626C12.7057 13.7252 12.7005 14.848 12.7057 16.1536L12.7214 18.5298L13.1757 19.1565C13.7345 19.919 13.5883 19.7205 14.7633 21.3499C15.3012 22.0967 15.8026 22.7912 15.8757 22.8905C15.9488 22.9897 16.0585 23.1411 16.1211 23.2299C16.2517 23.4232 18.4085 26.4156 18.5443 26.5983C18.5965 26.6715 19.453 27.8569 20.4505 29.2356C21.4427 30.6143 22.294 31.7998 22.3462 31.8677L22.4402 31.9983H25.9705C29.4852 32.0035 29.5008 32.0035 29.4486 31.899C29.4173 31.8416 29.3755 31.7841 29.3598 31.7685C29.3389 31.7528 29.0204 31.3194 28.6496 30.8023C27.955 29.831 26.7956 28.2173 26.6599 28.0345C26.6181 27.977 26.2055 27.4026 25.7407 26.755C24.6545 25.2458 23.1661 23.1777 22.9885 22.9427C22.9154 22.8435 22.7483 22.6085 22.623 22.4257C22.4976 22.2429 22.3671 22.0549 22.3253 22.0079C22.2835 21.9609 22.1738 21.8147 22.0851 21.6789C21.9911 21.5483 21.6621 21.0888 21.3539 20.6605C20.1162 18.9476 19.8969 18.6395 19.8865 18.5925C19.876 18.535 19.9126 18.5298 20.3878 18.4828C22.0276 18.3314 23.8502 17.5584 25.2342 16.42C26.7173 15.1979 27.8819 13.3701 28.3415 11.5318C28.3623 11.4431 28.3832 11.3491 28.3937 11.3229C28.425 11.1976 28.5242 10.6754 28.5608 10.4351C28.6078 10.0957 28.6078 8.6021 28.5608 8.16342C28.378 6.51838 27.6521 4.80544 26.5659 3.4633C26.2107 3.02984 25.5266 2.33527 25.2342 2.11593C25.1297 2.03759 25.0148 1.94359 24.973 1.90703C24.8164 1.76081 24.1009 1.30124 23.6727 1.07668C22.5237 0.476109 21.3069 0.126211 20.0849 0.0374305C19.6253 0.000874008 4.31861 -0.0252378 4.09404 0.00609637Z" fill="black"/>
<path d="M3.98438 19.9399V31.9774L4.09927 31.9826C4.15671 31.9826 5.48841 31.9879 7.0499 31.9879C8.9665 31.9931 9.89608 31.9722 9.9222 31.9356C9.93786 31.9095 9.95353 26.4939 9.94831 19.9033V7.92845L6.96634 7.91278L3.98438 7.90234V19.9399Z" fill="black"/>
</g>
<defs>
<clipPath id="clip0_1555_205">
<rect width="32" height="32" fill="white"/>
</clipPath>
</defs>
</svg>
