<svg width="50" height="32" viewBox="0 0 50 32" fill="none" xmlns="http://www.w3.org/2000/svg">
<g clip-path="url(#clip0_1554_76)">
<path d="M45.522 0H3.964L3.532 0.008C3.21705 0.0117222 2.90283 0.0391329 2.592 0.09C2.12277 0.16436 1.67791 0.349096 1.29404 0.629002C0.910172 0.908908 0.598266 1.27598 0.384 1.7C0.241926 1.98165 0.142827 2.283 0.09 2.594C0.0389514 2.90481 0.0115395 3.21904 0.008 3.534C0.00388087 3.6773 0.00121406 3.82064 0 3.964L0 28.036C0 28.18 0.004 28.324 0.008 28.468C0.016 28.782 0.034 29.098 0.09 29.408C0.163527 29.8773 0.347716 30.3223 0.627332 30.7062C0.906948 31.0902 1.27396 31.402 1.698 31.616C1.984 31.76 2.278 31.854 2.592 31.91C2.902 31.966 3.218 31.984 3.532 31.992L3.964 31.998L4.478 32H46.034L46.468 31.992C46.78 31.984 47.096 31.966 47.408 31.912C47.722 31.852 48.016 31.762 48.302 31.616C48.8687 31.329 49.329 30.8687 49.616 30.302C49.762 30.016 49.854 29.722 49.91 29.408C49.966 29.098 49.984 28.782 49.992 28.468L49.998 28.036L50 27.524V3.964L49.992 3.532C49.9884 3.21705 49.961 2.90282 49.91 2.592C49.8101 1.96473 49.5146 1.38505 49.0656 0.935731C48.6166 0.486411 48.0372 0.190415 47.41 0.09C47.0985 0.039108 46.7836 0.0116975 46.468 0.008C46.3234 0.003878 46.1787 0.0012112 46.034 0L45.522 0Z" fill="#10298D"/>
<path d="M45.522 1.06604H46.028L46.438 1.07404C46.678 1.08004 46.958 1.09404 47.218 1.14004C47.444 1.18004 47.634 1.24204 47.818 1.33604C48.1827 1.52194 48.479 1.81888 48.664 2.18404C48.756 2.36404 48.818 2.55404 48.86 2.78204C48.906 3.04004 48.92 3.32204 48.926 3.56204C48.93 3.69804 48.93 3.83204 48.932 3.97204V28.032L48.926 28.44C48.918 28.68 48.906 28.96 48.858 29.22C48.8132 29.5268 48.6951 29.8182 48.5137 30.0695C48.3323 30.3209 48.093 30.5248 47.816 30.664C47.636 30.758 47.444 30.82 47.22 30.86C46.954 30.908 46.662 30.92 46.442 30.926C46.304 30.93 46.168 30.932 46.026 30.932H3.96999C3.82999 30.932 3.69399 30.93 3.56199 30.926C3.30074 30.9229 3.04006 30.9008 2.78199 30.86C2.57326 30.8253 2.37098 30.7592 2.18199 30.664C1.81692 30.4796 1.52046 30.1831 1.33599 29.818C1.24072 29.6291 1.17463 29.4268 1.13999 29.218C1.09199 28.958 1.07999 28.678 1.07399 28.438C1.0706 28.3021 1.0686 28.1661 1.06799 28.03V3.97004C1.06799 3.83404 1.06799 3.69804 1.07399 3.56004C1.07999 3.32204 1.09399 3.04204 1.13999 2.78004C1.17999 2.55404 1.24199 2.36404 1.33599 2.18004C1.52108 1.81709 1.81661 1.52227 2.17999 1.33804C2.36199 1.24404 2.55199 1.18204 2.77999 1.14204C3.03999 1.09604 3.31999 1.08204 3.55999 1.07604L3.96799 1.07004H45.52" fill="#10298D"/>
<path fill-rule="evenodd" clip-rule="evenodd" d="M42.28 19.81H38.152L37.594 21.826H34.402L37.846 10.16H42.51L46 21.826H42.872L42.282 19.81H42.28ZM41.666 17.538L40.22 12.48L38.814 17.538H41.666ZM25.966 21.826V10.16H31.722C32.512 10.16 33.114 10.226 33.528 10.356C34.474 10.658 35.108 11.276 35.434 12.208C35.602 12.698 35.686 13.434 35.686 14.42C35.686 15.604 35.594 16.452 35.41 16.972C35.04 17.994 34.28 18.584 33.134 18.738C32.998 18.76 32.424 18.78 31.412 18.798L30.898 18.816H29.056V21.826H25.968H25.966ZM29.056 16.108H30.982C31.592 16.086 31.962 16.038 32.098 15.964C32.28 15.862 32.402 15.656 32.462 15.35C32.502 15.146 32.522 14.844 32.522 14.442C32.522 13.948 32.482 13.582 32.404 13.342C32.294 13.008 32.028 12.804 31.606 12.73C31.406 12.714 31.206 12.71 31.006 12.714H29.056V16.108ZM13.332 13.882H10.458C10.458 13.402 10.4 13.082 10.292 12.918C10.12 12.674 9.648 12.554 8.878 12.554C8.126 12.554 7.628 12.624 7.386 12.762C7.144 12.902 7.022 13.208 7.022 13.678C7.022 14.102 7.13 14.382 7.344 14.516C7.53241 14.62 7.74289 14.6776 7.958 14.684L8.538 14.724C9.314 14.772 10.09 14.832 10.864 14.902C11.848 15.002 12.558 15.268 13 15.698C13.348 16.032 13.556 16.474 13.622 17.014C13.662 17.338 13.678 17.704 13.678 18.114C13.678 19.052 13.592 19.74 13.416 20.176C13.096 20.976 12.376 21.48 11.256 21.694C10.788 21.782 10.074 21.826 9.108 21.826C7.498 21.826 6.376 21.73 5.742 21.532C4.968 21.296 4.454 20.808 4.206 20.076C4.066 19.672 4 18.996 4 18.042H6.876V18.286C6.876 18.792 7.018 19.118 7.306 19.262C7.53013 19.369 7.77564 19.4238 8.024 19.422H9.08C9.62 19.422 9.96 19.394 10.112 19.338C10.2308 19.2965 10.3391 19.2293 10.4289 19.1411C10.5188 19.0529 10.5882 18.9461 10.632 18.828C10.674 18.68 10.698 18.494 10.698 18.264C10.698 17.752 10.514 17.44 10.144 17.326C10.006 17.282 9.364 17.22 8.222 17.142C7.58228 17.1045 6.9444 17.0405 6.31 16.95C5.37 16.77 4.74 16.402 4.43 15.844C4.152 15.37 4.014 14.652 4.014 13.692C4.014 12.96 4.09 12.372 4.238 11.932C4.35989 11.5262 4.61315 11.1723 4.958 10.926C5.44 10.574 6.062 10.368 6.818 10.306C7.512 10.248 8.208 10.22 8.906 10.222C10.112 10.222 10.972 10.292 11.486 10.432C12.736 10.774 13.36 11.732 13.36 13.302C13.36 13.432 13.352 13.622 13.332 13.882Z" fill="white"/>
<path fill-rule="evenodd" clip-rule="evenodd" d="M21.584 11.72C22.902 11.72 24.076 12.326 24.85 13.274L25.538 11.802C24.4128 10.7434 22.9249 10.1558 21.38 10.16C20.1959 10.1529 19.0363 10.4972 18.048 11.1495C17.0596 11.8017 16.2871 12.7325 15.828 13.824H14.486L13.692 15.518H15.418C15.3893 15.8683 15.3927 16.2204 15.428 16.57H14.558L13.766 18.266H15.868C16.3404 19.3316 17.1136 20.2362 18.0927 20.8686C19.0719 21.501 20.2144 21.8337 21.38 21.826C22.5764 21.8288 23.7469 21.4774 24.744 20.816V18.74C24.3158 19.2265 23.7811 19.6075 23.1815 19.8534C22.5819 20.0994 21.9336 20.2036 21.2871 20.1579C20.6407 20.1122 20.0135 19.9179 19.4544 19.5901C18.8954 19.2623 18.4195 18.8099 18.064 18.268H22.464L23.256 16.572H17.416C17.3645 16.2237 17.3558 15.8704 17.39 15.52H23.748L24.54 13.826H17.94C18.3096 13.1866 18.8408 12.6557 19.4804 12.2864C20.12 11.9171 20.8454 11.7205 21.584 11.72Z" fill="#FFCC02"/>
</g>
<defs>
<clipPath id="clip0_1554_76">
<rect width="50" height="32" fill="white"/>
</clipPath>
</defs>
</svg>
