<svg width="32" height="32" viewBox="0 0 32 32" fill="none" xmlns="http://www.w3.org/2000/svg">
<g clip-path="url(#clip0_1554_81)">
<path d="M0 0H32V32H0V0Z" fill="#2E3235"/>
<path fill-rule="evenodd" clip-rule="evenodd" d="M6.20001 26H22.432L25.766 6H9.53401L6.20001 26ZM15.571 13.634C15.571 13.991 15.873 14.17 17.187 14.842C18.867 15.707 19.927 16.602 19.927 18.227C19.927 20.226 18.28 21.776 15.223 21.776C13.259 21.776 11.959 21.105 11.057 20.449L11.564 17.347C12.435 18.167 13.909 18.972 15.177 18.972C15.905 18.972 16.459 18.719 16.459 18.272C16.459 17.854 16.127 17.645 14.81 16.959C13.339 16.199 12.101 15.334 12.101 13.679C12.101 11.755 13.797 10.159 16.76 10.159C18.25 10.159 19.865 10.679 21.618 11.675C20.9629 12.4254 20.4672 13.3011 20.161 14.249C18.921 13.057 17.657 12.962 16.823 12.962C16.094 12.962 15.571 13.186 15.571 13.634Z" fill="#E5E5E0"/>
</g>
<defs>
<clipPath id="clip0_1554_81">
<rect width="32" height="32" fill="white"/>
</clipPath>
</defs>
</svg>
