<svg width="32" height="32" viewBox="0 0 32 32" fill="none" xmlns="http://www.w3.org/2000/svg">
<g clip-path="url(#clip0_1554_84)">
<path d="M11.6432 20.4785C11.494 20.5525 11.3286 20.5898 11.1613 20.5871C10.7731 20.5879 10.4163 20.3786 10.2343 20.0432L10.16 19.8982L7.23081 13.6611C7.20055 13.5926 7.18781 13.5179 7.19366 13.4435C7.19019 13.3078 7.24377 13.1768 7.34187 13.0808C7.43997 12.9849 7.57401 12.9325 7.7127 12.9359C7.83254 12.9386 7.94878 12.9764 8.04635 13.0445L11.4949 15.4379C11.7635 15.5976 12.0705 15.6853 12.3848 15.6918C12.5756 15.6908 12.7644 15.6539 12.941 15.5832L29.1096 8.54819C26.1787 5.17568 21.3956 3 16.0187 3C7.15651 3 0 8.83815 0 16.0544C0 19.9709 2.1508 23.5247 5.52509 25.9193C5.92106 26.1663 6.07784 26.6561 5.89656 27.0798C5.63687 28.059 5.19212 29.6558 5.19212 29.7271C5.14623 29.8555 5.12116 29.9901 5.11783 30.126C5.11484 30.2613 5.16852 30.3918 5.26642 30.4874C5.36432 30.5829 5.49792 30.6352 5.63619 30.632C5.74572 30.6349 5.85208 30.5959 5.93269 30.5233L9.41842 28.5283C9.67572 28.3736 9.96933 28.2862 10.2711 28.2743C10.434 28.2808 10.5957 28.3051 10.753 28.347C12.4514 28.8317 14.212 29.0763 15.9813 29.0735C24.8063 29.0735 32 23.2354 32 16.0191C31.9856 13.874 31.3561 11.776 30.1832 9.96331L11.7546 20.4061L11.6432 20.4785Z" fill="#65BF46"/>
</g>
<defs>
<clipPath id="clip0_1554_84">
<rect width="32" height="32" fill="white"/>
</clipPath>
</defs>
</svg>
