<svg viewBox="0 0 400 300" xmlns="http://www.w3.org/2000/svg" width="400" height="300">
  <rect width="400" height="300" fill="#f0f2f5"/>
  <defs>
    <linearGradient id="walnutGrad" x1="0" y1="0" x2="1" y2="0">
      <stop offset="0%" stop-color="#4a2e18"/>
      <stop offset="25%" stop-color="#5c3a20"/>
      <stop offset="50%" stop-color="#3e2410"/>
      <stop offset="75%" stop-color="#563418"/>
      <stop offset="100%" stop-color="#422a14"/>
    </linearGradient>
  </defs>
  <rect x="82" y="84" width="240" height="142" rx="3" fill="#2a1808" opacity="0.4"/>
  <rect x="78" y="78" width="240" height="142" rx="3" fill="url(#walnutGrad)"/>
  <line x1="78" y1="90" x2="318" y2="93" stroke="#2a1608" stroke-width="1.0" opacity="0.6"/>
  <line x1="78" y1="103" x2="318" y2="100" stroke="#6a4228" stroke-width="1.4" opacity="0.4"/>
  <line x1="78" y1="116" x2="318" y2="119" stroke="#2e1a0a" stroke-width="0.8" opacity="0.5"/>
  <line x1="78" y1="130" x2="318" y2="127" stroke="#5a3820" stroke-width="1.2" opacity="0.4"/>
  <line x1="78" y1="143" x2="318" y2="146" stroke="#3a2010" stroke-width="0.9" opacity="0.5"/>
  <line x1="78" y1="157" x2="318" y2="154" stroke="#6a4228" stroke-width="1.3" opacity="0.3"/>
  <line x1="78" y1="170" x2="318" y2="173" stroke="#2a1808" stroke-width="1.0" opacity="0.5"/>
  <line x1="78" y1="184" x2="318" y2="181" stroke="#5a3820" stroke-width="0.7" opacity="0.4"/>
  <line x1="78" y1="197" x2="318" y2="200" stroke="#3a2010" stroke-width="1.1" opacity="0.4"/>
  <ellipse cx="240" cy="118" rx="12" ry="8" fill="none" stroke="#1e1006" stroke-width="1.3" opacity="0.6"/>
  <ellipse cx="240" cy="118" rx="5" ry="3" fill="#1e1006" opacity="0.4"/>
  <rect x="78" y="78" width="240" height="4" rx="2" fill="#7a5030" opacity="0.5"/>
  <rect x="78" y="78" width="240" height="142" rx="3" fill="none" stroke="#2e1a08" stroke-width="1.5"/>
  <text x="200" y="252" text-anchor="middle" font-family="Arial, sans-serif" font-size="12" fill="#666">Wood Panel — Walnut</text>
</svg>
