<svg viewBox="0 0 400 300" xmlns="http://www.w3.org/2000/svg" width="400" height="300">
  <rect width="400" height="300" fill="#f0f2f5"/>
  <defs>
    <linearGradient id="silverCornerV" x1="0" y1="0" x2="1" y2="0">
      <stop offset="0%" stop-color="#e8ecf0"/>
      <stop offset="40%" stop-color="#c0c6ce"/>
      <stop offset="100%" stop-color="#b0b8c2"/>
    </linearGradient>
    <linearGradient id="silverCornerH" x1="0" y1="0" x2="0" y2="1">
      <stop offset="0%" stop-color="#e0e6ec"/>
      <stop offset="50%" stop-color="#b8c0c8"/>
      <stop offset="100%" stop-color="#a8b0ba"/>
    </linearGradient>
  </defs>
  <polygon points="205,82 215,82 215,222 365,222 365,232 205,232" fill="#a0a8b0" opacity="0.3"/>
  <rect x="195" y="78" width="22" height="140" rx="2" fill="url(#silverCornerV)" stroke="#9aa0aa" stroke-width="1"/>
  <rect x="195" y="196" width="160" height="22" rx="2" fill="url(#silverCornerH)" stroke="#9aa0aa" stroke-width="1"/>
  <rect x="195" y="196" width="22" height="22" fill="#c8d0d8"/>
  <line x1="196" y1="78" x2="196" y2="218" stroke="#e8eef4" stroke-width="2" opacity="0.9"/>
  <line x1="195" y1="197" x2="355" y2="197" stroke="#e8eef4" stroke-width="2" opacity="0.9"/>
  <rect x="217" y="78" width="3" height="140" rx="1" fill="#98a0aa" opacity="0.5"/>
  <rect x="195" y="218" width="160" height="3" rx="1" fill="#98a0aa" opacity="0.5"/>
  <!-- Metallic sheen -->
  <line x1="200" y1="78" x2="200" y2="218" stroke="#ffffff" stroke-width="1" opacity="0.4"/>
  <line x1="205" y1="198" x2="355" y2="198" stroke="#ffffff" stroke-width="1" opacity="0.4"/>
  <text x="200" y="260" text-anchor="middle" font-family="Arial, sans-serif" font-size="12" fill="#666">Corner Aluminum Profile — Silver</text>
</svg>
